<svg width="58" height="58" viewBox="0 0 58 58" fill="none" xmlns="http://www.w3.org/2000/svg">
	<path fill-rule="evenodd" clip-rule="evenodd" d="M9.66667 19.3333C8.3375 19.3333 7.25 18.2458 7.25 16.9167C7.25 15.5875 8.3375 14.5 9.66667 14.5H48.3333C49.6625 14.5 50.75 15.5875 50.75 16.9167C50.75 18.2458 49.6625 19.3333 48.3333 19.3333H9.66667ZM9.66667 31.4167H48.3333C49.6625 31.4167 50.75 30.3292 50.75 29C50.75 27.6708 49.6625 26.5833 48.3333 26.5833H9.66667C8.3375 26.5833 7.25 27.6708 7.25 29C7.25 30.3292 8.3375 31.4167 9.66667 31.4167ZM9.66667 43.5H48.3333C49.6625 43.5 50.75 42.4125 50.75 41.0833C50.75 39.7542 49.6625 38.6667 48.3333 38.6667H9.66667C8.3375 38.6667 7.25 39.7542 7.25 41.0833C7.25 42.4125 8.3375 43.5 9.66667 43.5Z" fill="#004798"/>
</svg>
