<svg width="25" height="24" viewBox="0 0 25 24" fill="none" xmlns="http://www.w3.org/2000/svg">
	<path fill-rule="evenodd" clip-rule="evenodd" d="M7.39256 4C7.39256 2.34315 8.7556 1 10.437 1H14.4963C16.1777 1 17.5407 2.34315 17.5407 4V5H21.6C22.1604 5 22.6148 5.44772 22.6148 6C22.6148 6.55228 22.1604 7 21.6 7H20.5237L19.6873 20.1871C19.587 21.7682 18.2564 23 16.6488 23H8.28448C6.67682 23 5.34624 21.7682 5.24596 20.1871L4.40956 7H3.3333C2.77283 7 2.31848 6.55228 2.31848 6C2.31848 5.44772 2.77283 5 3.3333 5H7.39256V4ZM9.42219 5H15.5111V4C15.5111 3.44772 15.0567 3 14.4963 3H10.437C9.87653 3 9.42219 3.44772 9.42219 4V5ZM6.44315 7L7.27164 20.0624C7.30507 20.5894 7.74859 21 8.28448 21H16.6488C17.1847 21 17.6282 20.5894 17.6616 20.0624L18.4901 7H6.44315Z" fill="#8FA8CC"/>
</svg>
