<svg width="59" height="35" viewBox="0 0 59 35" fill="none" xmlns="http://www.w3.org/2000/svg">
	<path fill-rule="evenodd" clip-rule="evenodd" d="M18.1483 2.4191C18.4257 1.01332 19.6586 0 21.0915 0H39.1863C40.6192 0 41.852 1.01332 42.1295 2.4191L42.4196 3.88889H55.3333C56.9902 3.88889 58.3333 5.23203 58.3333 6.88889V32C58.3333 33.6569 56.9902 35 55.3333 35H3C1.34314 35 0 33.6569 0 32V6.88889C0 5.23204 1.34315 3.88889 3 3.88889H17.8582L18.1483 2.4191ZM29.1667 29.1667C34.5361 29.1667 38.8889 24.8139 38.8889 19.4444C38.8889 14.075 34.5361 9.72222 29.1667 9.72222C23.7972 9.72222 19.4444 14.075 19.4444 19.4444C19.4444 24.8139 23.7972 29.1667 29.1667 29.1667Z" fill="white"/>
</svg>
