<svg width="24" height="24" viewBox="0 0 24 24" fill="none" xmlns="http://www.w3.org/2000/svg">
	<path fill-rule="evenodd" clip-rule="evenodd" d="M2.01179 5.6023C1.833 3.50023 3.61562 2 5.51149 2H7.88582C9.01903 2 10.0409 2.68182 10.476 3.72819L11.6458 6.54152C12.0463 7.50457 11.8793 8.61027 11.2125 9.41219L9.96008 10.9182C10.7682 12.1458 11.7861 13.2527 12.9454 14.169L14.5826 12.8019C15.3859 12.1311 16.4957 11.9632 17.4615 12.3664L20.2637 13.5364C21.308 13.9725 21.988 14.9933 21.988 16.125C21.988 16.5154 21.991 16.906 21.9939 17.3009L21.9939 17.3025C21.9969 17.6956 21.9999 18.093 21.9999 18.4913C21.9999 20.387 20.4997 22.1699 18.3974 21.9904C9.8576 21.2613 2.73993 14.1628 2.01179 5.6023ZM5.51149 4C4.56794 4 3.94275 4.70566 4.0046 5.43279C4.65004 13.0211 10.9964 19.3513 18.5675 19.9977C19.2943 20.0597 19.9999 19.4349 19.9999 18.4913C19.9999 18.1013 19.997 17.7109 19.994 17.316L19.994 17.3135C19.991 16.9206 19.988 16.5234 19.988 16.125C19.988 15.8002 19.7928 15.5072 19.4931 15.382L16.6909 14.212C16.4137 14.0963 16.0951 14.1444 15.8645 14.337L13.0325 16.7019L12.405 16.2603C10.5706 14.9694 8.99858 13.2704 7.86729 11.3384L7.51284 10.733L9.67471 8.13339C9.86613 7.90321 9.91405 7.58583 9.79911 7.30939L8.62931 4.49606C8.50443 4.19571 8.21109 4 7.88582 4H5.51149Z" fill="#004798"/>
</svg>
