<svg width="21" height="26" viewBox="0 0 21 26" fill="none" xmlns="http://www.w3.org/2000/svg">
	<path d="M12.136 9.52H9.608V5.712H12.136C12.2201 5.712 12.3604 5.71537 12.5656 5.72326L12.567 5.72331C12.7079 5.72853 12.8451 5.74929 12.98 5.78562L12.98 5.78571L12.9936 5.78917C13.311 5.86985 13.4952 5.99367 13.6108 6.1228L13.6156 6.12817L13.6205 6.13348C13.793 6.32077 13.9114 6.53282 13.981 6.78163L13.9843 6.79321L13.9878 6.80472C14.0801 7.10622 14.124 7.39967 14.124 7.688C14.124 8.17668 14.0146 8.55931 13.827 8.87004C13.6911 9.08882 13.4486 9.29242 12.9734 9.4242C12.7966 9.47292 12.6528 9.49905 12.5385 9.50989C12.3735 9.51685 12.2402 9.52 12.136 9.52ZM7.612 1H6.612H5.716H4.716V2V9.52H3C1.89543 9.52 1 10.4154 1 11.52V11.992C1 13.0966 1.89543 13.992 3 13.992H4.716V15.66H3C1.89543 15.66 1 16.5554 1 17.66V17.928C1 19.0326 1.89543 19.928 3 19.928H4.716V21.834C4.716 23.1849 5.81111 24.28 7.162 24.28C8.51289 24.28 9.608 23.1849 9.608 21.834V19.928H13.236C14.3406 19.928 15.236 19.0326 15.236 17.928V17.66C15.236 16.5554 14.3406 15.66 13.236 15.66H9.608V13.992H12.256C12.3621 13.992 12.5495 13.9874 12.8032 13.9795L12.8179 13.9791L12.8325 13.9782C13.1217 13.9606 13.4353 13.9304 13.772 13.8883L13.7853 13.8866L13.7984 13.8846C15.4558 13.6324 16.8147 12.9563 17.7374 11.7699C18.6285 10.6242 19.04 9.21077 19.04 7.604C19.04 6.55445 18.8605 5.56897 18.4868 4.66045C18.1104 3.71748 17.5208 2.92678 16.7257 2.30555C15.9158 1.66639 14.9249 1.27998 13.7995 1.10753L13.7963 1.10706C13.4459 1.0545 13.1141 1.02195 12.8032 1.01249C12.5495 1.00456 12.3621 1 12.256 1H9.608H8.608H7.612Z" stroke="white" stroke-width="2"/>
</svg>
