<svg width="18" height="18" viewBox="0 0 18 18" fill="none" xmlns="http://www.w3.org/2000/svg">
	<path d="M11.4697 7.71967C11.1768 8.01256 11.1768 8.48744 11.4697 8.78033C11.7626 9.07322 12.2374 9.07322 12.5303 8.78033L15.5303 5.78033C15.623 5.68771 15.6863 5.57689 15.7203 5.45939C15.7334 5.41432 15.7421 5.36827 15.7466 5.32189C15.7482 5.30489 15.7493 5.28786 15.7497 5.2708C15.7502 5.25532 15.7501 5.23982 15.7496 5.22433C15.7428 5.02283 15.6566 4.84146 15.5213 4.71059L12.5303 1.71967C12.2374 1.42678 11.7626 1.42678 11.4697 1.71967C11.1768 2.01256 11.1768 2.48744 11.4697 2.78033L13.1892 4.49986L2.99999 4.49999C2.58578 4.49999 2.24999 4.83579 2.25 5.25C2.25001 5.66421 2.5858 6 3.00001 5.99999L13.1895 5.99986L11.4697 7.71967Z" fill="#004798"/>
	<path d="M15 12L4.81067 12L6.53034 10.2803C6.82323 9.98744 6.82323 9.51256 6.53034 9.21967C6.23745 8.92678 5.76257 8.92678 5.46968 9.21967L2.46968 12.2197C2.17679 12.5126 2.17679 12.9874 2.46968 13.2803L5.46968 16.2803C5.76257 16.5732 6.23745 16.5732 6.53034 16.2803C6.82323 15.9874 6.82323 15.5126 6.53034 15.2197L4.81067 13.5L15 13.5C15.4142 13.5 15.75 13.1642 15.75 12.75C15.75 12.3358 15.4142 12 15 12Z" fill="#004798"/>
</svg>
