<svg width="24" height="24" viewBox="0 0 24 24" fill="none" xmlns="http://www.w3.org/2000/svg">
	<path fill-rule="evenodd" clip-rule="evenodd" d="M10.6321 1.87859C11.1579 0.707136 12.8211 0.707139 13.3468 1.87859L15.915 7.60055L22.1505 8.2748C23.4271 8.41284 23.941 9.9946 22.9894 10.8566L18.341 15.0672L19.6267 21.2059C19.8899 22.4627 18.5443 23.4403 17.4304 22.8016L11.9895 19.6819L6.54855 22.8016C5.43463 23.4403 4.08911 22.4627 4.35231 21.2059L5.63794 15.0672L0.989627 10.8566C0.0379818 9.99459 0.551929 8.41284 1.82851 8.2748L8.06402 7.60055L10.6321 1.87859ZM11.9895 3.7387L9.76841 8.68742C9.55207 9.16946 9.0963 9.50059 8.57101 9.55739L3.17815 10.1405L7.19831 13.7821C7.58989 14.1368 7.76398 14.6726 7.65568 15.1898L6.54378 20.4989L11.2495 17.8008C11.7078 17.538 12.2712 17.538 12.7295 17.8008L17.4352 20.4989L16.3233 15.1898C16.215 14.6726 16.3891 14.1369 16.7807 13.7821L20.8008 10.1405L15.408 9.55739C14.8827 9.50059 14.4269 9.16946 14.2106 8.68742L11.9895 3.7387Z" fill="white"/>
</svg>
