<svg width="177" height="45" viewBox="0 0 177 45" fill="none" xmlns="http://www.w3.org/2000/svg">
	<g clip-path="url(#clip0_112_6944)">
		<path d="M177 0H0V45H177V0Z" fill="#E7332B"/>
		<path d="M19.084 14.0755H10.0552L12.0438 6.07837H38.8095L36.8529 14.0755H28.0487L22.115 37.7928H13.2145L19.084 14.0755Z" fill="white"/>
		<path d="M42.4498 6.07837H68.991L67.0024 14.0755H49.1212L47.9826 18.4449H63.7469L61.8225 25.5069H46.2185L45.2082 29.8118H63.0894L61.2131 37.8251H34.5276L42.4498 6.07837Z" fill="white"/>
		<path d="M149.513 6.07837H158.301L152.512 29.8118H165.357L163.369 37.8251H141.703L149.513 6.07837Z" fill="white"/>
		<path d="M129.595 37.7928L137.421 6.07837H146.466L138.624 37.7606L129.595 37.7928Z" fill="white"/>
		<path fill-rule="evenodd" clip-rule="evenodd" d="M79.6075 13.8014L78.533 18.2192H86.1345C88.2835 18.2192 88.941 17.2679 89.1014 16.1393C89.1492 15.8737 89.1427 15.6011 89.0821 15.3382C89.0215 15.0753 88.9082 14.8275 88.749 14.6102C88.5899 14.3928 88.3882 14.2104 88.1565 14.0741C87.9248 13.9378 87.6679 13.8505 87.4015 13.8176L79.6075 13.8014ZM92.1163 6.15901C93.1341 6.15252 94.1415 6.36496 95.0709 6.78209C96.0002 7.19922 96.8301 7.81139 97.5047 8.5775C101.289 12.7534 98.5632 20.7828 91.7154 21.3149C91.523 21.3149 97.5047 22.0888 95.8529 29.5861C95.3451 31.8926 94.0838 33.9618 92.2701 35.4637C90.4565 36.9657 88.1949 37.814 85.8459 37.8734H64.6771L72.4711 6.07837L92.1163 6.15901ZM76.753 25.5069L75.6945 29.9085H83.28C85.445 29.9085 86.0864 28.9734 86.2468 27.8287C86.2953 27.5702 86.2921 27.3045 86.2375 27.0473C86.1828 26.79 86.0779 26.5462 85.9286 26.3301C85.7793 26.114 85.5888 25.93 85.3681 25.7887C85.1474 25.6473 84.901 25.5516 84.6431 25.5069H76.8331" fill="white"/>
		<path fill-rule="evenodd" clip-rule="evenodd" d="M108.282 21.6857C106.838 26.7485 107.833 30.1182 112.804 30.1182C116.605 30.1182 120.101 28.9573 121.849 21.718C122.955 16.9777 122.282 13.6563 117.455 13.6563C115.402 13.8015 110.302 13.3823 108.282 21.6857ZM119.652 5.14327C131.423 4.93367 133.091 14.5109 130.669 22.6047C127.35 36.0515 120.887 38.728 110.751 38.728C99.5254 38.728 97.9217 30.7631 99.2047 22.0566C102.508 6.56211 110.687 5.27227 118.112 5.20778H119.716" fill="white"/>
	</g>
	<defs>
		<clipPath id="clip0_112_6944">
			<rect width="177" height="45" fill="white"/>
		</clipPath>
	</defs>
</svg>
