<svg width="484" height="208" viewBox="0 0 484 208" fill="none" xmlns="http://www.w3.org/2000/svg">
	<g filter="url(#filter0_i_229_6035)">
		<path fill-rule="evenodd" clip-rule="evenodd" d="M6.51347 70.5C10.5218 65 15.0311 64 33.0684 61C51.1057 58 116.24 53 141.292 53H239.495H244.005H342.208C367.26 53 432.394 58 450.432 61C468.469 64 472.978 65 476.987 70.5C480.995 76 481.496 86.5 481.496 98.5C481.496 110.5 483.5 207.5 483.5 207.5L244.005 207.991V208L241.75 207.995L239.495 208V207.991L0 207.5C0 207.5 2.00415 110.5 2.00415 98.5C2.00415 86.5 2.50518 76 6.51347 70.5Z" fill="#004798"/>
	</g>
	<path d="M242.5 185C293.586 185 335 143.808 335 92.9946C335 42.1815 293.586 0.989258 242.5 0.989258C191.414 0.989258 150 42.1815 150 92.9946C150 143.808 191.414 185 242.5 185Z" fill="#004798"/>
	<path d="M242.995 26.7112V0" stroke="white" stroke-width="0.5032" stroke-miterlimit="10"/>
	<path d="M237.059 19.786L236.069 0.989258" stroke="white" stroke-width="0.5032" stroke-miterlimit="10"/>
	<path d="M232.112 19.786L230.134 0.989258" stroke="white" stroke-width="0.5032" stroke-miterlimit="10"/>
	<path d="M227.166 20.7753L223.208 2.96777" stroke="white" stroke-width="0.5032" stroke-miterlimit="10"/>
	<path d="M222.219 22.7541L217.273 3.95728" stroke="white" stroke-width="0.5032" stroke-miterlimit="10"/>
	<path d="M220.241 30.6687L211.337 5.93604" stroke="white" stroke-width="0.5032" stroke-miterlimit="10"/>
	<path d="M212.326 25.7217L205.401 8.90356" stroke="white" stroke-width="0.5032" stroke-miterlimit="10"/>
	<path d="M208.369 27.7005L199.465 10.8823" stroke="white" stroke-width="0.5032" stroke-miterlimit="10"/>
	<path d="M203.422 30.6685L193.529 14.8396" stroke="white" stroke-width="0.5032" stroke-miterlimit="10"/>
	<path d="M199.465 33.6365L188.583 17.8076" stroke="white" stroke-width="0.5032" stroke-miterlimit="10"/>
	<path d="M200.455 42.54L183.636 21.7646" stroke="white" stroke-width="0.5032" stroke-miterlimit="10"/>
	<path d="M306.31 159.278L288.503 140.481" stroke="white" stroke-width="0.5032" stroke-miterlimit="10"/>
	<path d="M191.551 40.5614L178.69 26.7112" stroke="white" stroke-width="0.5032" stroke-miterlimit="10"/>
	<path d="M311.257 154.331L297.406 141.47" stroke="white" stroke-width="0.5032" stroke-miterlimit="10"/>
	<path d="M188.583 43.5297L173.743 30.6687" stroke="white" stroke-width="0.5032" stroke-miterlimit="10"/>
	<path d="M315.214 149.385L300.374 137.513" stroke="white" stroke-width="0.5032" stroke-miterlimit="10"/>
	<path d="M184.626 47.4864L169.786 35.6147" stroke="white" stroke-width="0.5032" stroke-miterlimit="10"/>
	<path d="M319.171 144.439L303.342 133.556" stroke="white" stroke-width="0.5032" stroke-miterlimit="10"/>
	<path d="M181.658 51.4438L165.829 41.5508" stroke="white" stroke-width="0.5032" stroke-miterlimit="10"/>
	<path d="M323.128 138.502L306.31 129.599" stroke="white" stroke-width="0.5032" stroke-miterlimit="10"/>
	<path d="M185.615 59.3583L162.861 46.4973" stroke="white" stroke-width="0.5032" stroke-miterlimit="10"/>
	<path d="M326.096 133.556L302.353 121.684" stroke="white" stroke-width="0.5032" stroke-miterlimit="10"/>
	<path d="M176.711 60.3475L159.893 52.4331" stroke="white" stroke-width="0.5032" stroke-miterlimit="10"/>
	<path d="M328.075 127.62L310.267 120.695" stroke="white" stroke-width="0.5032" stroke-miterlimit="10"/>
	<path d="M174.733 65.2943L156.925 58.3691" stroke="white" stroke-width="0.5032" stroke-miterlimit="10"/>
	<path d="M330.053 121.685L312.246 115.749" stroke="white" stroke-width="0.5032" stroke-miterlimit="10"/>
	<path d="M172.754 70.2408L154.946 64.3049" stroke="white" stroke-width="0.5032" stroke-miterlimit="10"/>
	<path d="M332.032 114.759L314.225 110.802" stroke="white" stroke-width="0.5032" stroke-miterlimit="10"/>
	<path d="M171.765 75.1872L152.968 70.2407" stroke="white" stroke-width="0.5032" stroke-miterlimit="10"/>
	<path d="M334.011 108.824L315.214 105.856" stroke="white" stroke-width="0.5032" stroke-miterlimit="10"/>
	<path d="M177.701 81.123L151.979 77.1658" stroke="white" stroke-width="0.5032" stroke-miterlimit="10"/>
	<path d="M334.011 102.888L308.289 99.9197" stroke="white" stroke-width="0.5032" stroke-miterlimit="10"/>
	<path d="M169.786 85.0804L150.989 83.1018" stroke="white" stroke-width="0.5032" stroke-miterlimit="10"/>
	<path d="M335 95.9624L316.203 94.9731" stroke="white" stroke-width="0.5032" stroke-miterlimit="10"/>
	<path d="M168.797 90.0269H150" stroke="white" stroke-width="0.5032" stroke-miterlimit="10"/>
	<path d="M335 90.0269H316.203" stroke="white" stroke-width="0.5032" stroke-miterlimit="10"/>
	<path d="M168.797 94.9731L150 95.9624" stroke="white" stroke-width="0.5032" stroke-miterlimit="10"/>
	<path d="M334.011 83.1018L315.214 85.0804" stroke="white" stroke-width="0.5032" stroke-miterlimit="10"/>
	<path d="M169.786 100.909L150.989 102.888" stroke="white" stroke-width="0.5032" stroke-miterlimit="10"/>
	<path d="M334.011 77.1658L315.214 80.1337" stroke="white" stroke-width="0.5032" stroke-miterlimit="10"/>
	<path d="M177.701 103.877L151.979 108.823" stroke="white" stroke-width="0.5032" stroke-miterlimit="10"/>
	<path d="M332.032 70.2407L307.299 77.1659" stroke="white" stroke-width="0.5032" stroke-miterlimit="10"/>
	<path d="M171.765 110.802L152.968 114.759" stroke="white" stroke-width="0.5032" stroke-miterlimit="10"/>
	<path d="M330.053 64.3049L312.246 70.2408" stroke="white" stroke-width="0.5032" stroke-miterlimit="10"/>
	<path d="M172.754 115.749L154.946 121.685" stroke="white" stroke-width="0.5032" stroke-miterlimit="10"/>
	<path d="M328.075 58.3691L310.267 65.2943" stroke="white" stroke-width="0.5032" stroke-miterlimit="10"/>
	<path d="M174.733 120.695L156.925 127.62" stroke="white" stroke-width="0.5032" stroke-miterlimit="10"/>
	<path d="M326.096 52.4331L308.289 60.3475" stroke="white" stroke-width="0.5032" stroke-miterlimit="10"/>
	<path d="M176.711 124.653L159.893 133.556" stroke="white" stroke-width="0.5032" stroke-miterlimit="10"/>
	<path d="M323.128 46.4973L306.31 56.3904" stroke="white" stroke-width="0.5032" stroke-miterlimit="10"/>
	<path d="M185.615 125.642L162.861 138.503" stroke="white" stroke-width="0.5032" stroke-miterlimit="10"/>
	<path d="M319.171 41.5508L297.406 55.401" stroke="white" stroke-width="0.5032" stroke-miterlimit="10"/>
	<path d="M181.658 133.556L165.829 144.439" stroke="white" stroke-width="0.5032" stroke-miterlimit="10"/>
	<path d="M315.214 35.6147L300.374 47.4864" stroke="white" stroke-width="0.5032" stroke-miterlimit="10"/>
	<path d="M184.626 137.513L169.786 149.385" stroke="white" stroke-width="0.5032" stroke-miterlimit="10"/>
	<path d="M311.257 30.6687L297.406 43.5297" stroke="white" stroke-width="0.5032" stroke-miterlimit="10"/>
	<path d="M188.583 141.47L173.743 154.331" stroke="white" stroke-width="0.5032" stroke-miterlimit="10"/>
	<path d="M306.31 26.7112L293.449 40.5614" stroke="white" stroke-width="0.5032" stroke-miterlimit="10"/>
	<path d="M191.551 145.428L178.69 159.278" stroke="white" stroke-width="0.5032" stroke-miterlimit="10"/>
	<path d="M302.353 21.7646L289.492 36.6042" stroke="white" stroke-width="0.5032" stroke-miterlimit="10"/>
	<path d="M200.455 143.449L183.636 163.235" stroke="white" stroke-width="0.5032" stroke-miterlimit="10"/>
	<path d="M297.406 17.8076L281.578 39.5723" stroke="white" stroke-width="0.5032" stroke-miterlimit="10"/>
	<path d="M291.471 14.8396L281.578 30.6685" stroke="white" stroke-width="0.5032" stroke-miterlimit="10"/>
	<path d="M286.524 10.8823L276.631 27.7005" stroke="white" stroke-width="0.5032" stroke-miterlimit="10"/>
	<path d="M280.588 8.90356L272.674 25.7217" stroke="white" stroke-width="0.5032" stroke-miterlimit="10"/>
	<path d="M274.652 5.93604L265.749 30.6687" stroke="white" stroke-width="0.5032" stroke-miterlimit="10"/>
	<path d="M267.727 3.95728L262.781 22.7541" stroke="white" stroke-width="0.5032" stroke-miterlimit="10"/>
	<path d="M261.792 2.96777L257.834 20.7753" stroke="white" stroke-width="0.5032" stroke-miterlimit="10"/>
	<path d="M255.855 0.989258L252.888 19.786" stroke="white" stroke-width="0.5032" stroke-miterlimit="10"/>
	<path d="M248.93 0.989258L247.941 19.786" stroke="white" stroke-width="0.5032" stroke-miterlimit="10"/>
	<defs>
		<filter id="filter0_i_229_6035" x="-1" y="53" width="484.5" height="159" filterUnits="userSpaceOnUse" color-interpolation-filters="sRGB">
			<feFlood flood-opacity="0" result="BackgroundImageFix"/>
			<feBlend mode="normal" in="SourceGraphic" in2="BackgroundImageFix" result="shape"/>
			<feColorMatrix in="SourceAlpha" type="matrix" values="0 0 0 0 0 0 0 0 0 0 0 0 0 0 0 0 0 0 127 0" result="hardAlpha"/>
			<feOffset dx="-1" dy="4"/>
			<feGaussianBlur stdDeviation="4"/>
			<feComposite in2="hardAlpha" operator="arithmetic" k2="-1" k3="1"/>
			<feColorMatrix type="matrix" values="0 0 0 0 0 0 0 0 0 0 0 0 0 0 0 0 0 0 0.25 0"/>
			<feBlend mode="normal" in2="shape" result="effect1_innerShadow_229_6035"/>
		</filter>
	</defs>
</svg>
