<svg width="485" height="188" viewBox="0 0 485 188" fill="none" xmlns="http://www.w3.org/2000/svg">
	<g filter="url(#filter0_i_408_14094)">
		<path fill-rule="evenodd" clip-rule="evenodd" d="M6.53368 47.7823C10.5544 42.1935 15.0777 41.1774 33.171 38.129C51.2642 35.0806 116.601 30 141.731 30H240.238H244.762H343.269C368.399 30 433.736 35.0806 451.829 38.129C469.922 41.1774 474.446 42.1935 478.466 47.7823C482.487 53.371 482.99 64.0403 482.99 76.2339C482.99 88.4274 485 186.992 485 186.992L244.762 187.491V187.5L242.5 187.495L240.238 187.5V187.491L0 186.992C0 186.992 2.01036 88.4274 2.01036 76.2339C2.01036 64.0403 2.51295 53.371 6.53368 47.7823Z" fill="#004798"/>
	</g>
	<path d="M243.5 185C294.586 185 336 143.808 336 92.9946C336 42.1815 294.586 0.989258 243.5 0.989258C192.414 0.989258 151 42.1815 151 92.9946C151 143.808 192.414 185 243.5 185Z" fill="#004798"/>
	<path d="M220.531 151.606H227.923V152.796H221.917V155.596H224.969C226.135 155.596 227.022 155.839 227.629 156.324C228.235 156.81 228.539 157.51 228.539 158.424C228.539 159.386 228.207 160.123 227.545 160.636C226.891 161.15 225.953 161.406 224.731 161.406H220.531V151.606ZM224.675 160.3C225.477 160.3 226.089 160.146 226.509 159.838C226.929 159.53 227.139 159.078 227.139 158.48C227.139 157.295 226.317 156.702 224.675 156.702H221.917V160.3H224.675ZM233.193 153.916C234.22 153.916 235.004 154.168 235.545 154.672C236.096 155.176 236.371 155.928 236.371 156.926V161.406H235.097V160.426C234.873 160.772 234.551 161.038 234.131 161.224C233.72 161.402 233.23 161.49 232.661 161.49C231.83 161.49 231.163 161.29 230.659 160.888C230.164 160.487 229.917 159.96 229.917 159.306C229.917 158.653 230.155 158.13 230.631 157.738C231.107 157.337 231.863 157.136 232.899 157.136H235.027V156.87C235.027 156.292 234.859 155.848 234.523 155.54C234.187 155.232 233.692 155.078 233.039 155.078C232.6 155.078 232.171 155.153 231.751 155.302C231.331 155.442 230.976 155.634 230.687 155.876L230.127 154.868C230.51 154.56 230.967 154.327 231.499 154.168C232.031 154 232.596 153.916 233.193 153.916ZM232.885 160.454C233.398 160.454 233.842 160.342 234.215 160.118C234.588 159.885 234.859 159.558 235.027 159.138V158.102H232.955C231.816 158.102 231.247 158.485 231.247 159.25C231.247 159.624 231.392 159.918 231.681 160.132C231.97 160.347 232.372 160.454 232.885 160.454ZM245.161 153.986V161.406H243.817V155.162H240.625L240.541 156.814C240.494 157.813 240.406 158.648 240.275 159.32C240.144 159.983 239.93 160.515 239.631 160.916C239.332 161.318 238.917 161.518 238.385 161.518C238.142 161.518 237.867 161.476 237.559 161.392L237.643 160.258C237.764 160.286 237.876 160.3 237.979 160.3C238.352 160.3 238.632 160.137 238.819 159.81C239.006 159.484 239.127 159.096 239.183 158.648C239.239 158.2 239.29 157.561 239.337 156.73L239.463 153.986H245.161ZM254.13 153.986V161.406H252.786V155.162H249.594L249.51 156.814C249.463 157.813 249.375 158.648 249.244 159.32C249.113 159.983 248.899 160.515 248.6 160.916C248.301 161.318 247.886 161.518 247.354 161.518C247.111 161.518 246.836 161.476 246.528 161.392L246.612 160.258C246.733 160.286 246.845 160.3 246.948 160.3C247.321 160.3 247.601 160.137 247.788 159.81C247.975 159.484 248.096 159.096 248.152 158.648C248.208 158.2 248.259 157.561 248.306 156.73L248.432 153.986H254.13ZM260.075 156.506C261.008 156.516 261.722 156.73 262.217 157.15C262.711 157.57 262.959 158.163 262.959 158.928C262.959 159.731 262.688 160.352 262.147 160.79C261.615 161.22 260.849 161.43 259.851 161.42L256.729 161.406V153.986H258.073V156.492L260.075 156.506ZM264.065 153.986H265.409V161.406H264.065V153.986ZM259.753 160.398C260.359 160.408 260.817 160.286 261.125 160.034C261.442 159.782 261.601 159.409 261.601 158.914C261.601 158.429 261.447 158.074 261.139 157.85C260.831 157.626 260.369 157.51 259.753 157.5L258.073 157.472V160.384L259.753 160.398Z" fill="white"/>
	<path d="M243.995 26.7112V0" stroke="white" stroke-width="0.5032" stroke-miterlimit="10"/>
	<path d="M238.059 19.786L237.069 0.989258" stroke="white" stroke-width="0.5032" stroke-miterlimit="10"/>
	<path d="M233.112 19.786L231.134 0.989258" stroke="white" stroke-width="0.5032" stroke-miterlimit="10"/>
	<path d="M228.166 20.7753L224.208 2.96777" stroke="white" stroke-width="0.5032" stroke-miterlimit="10"/>
	<path d="M223.219 22.7541L218.273 3.95728" stroke="white" stroke-width="0.5032" stroke-miterlimit="10"/>
	<path d="M221.241 30.6687L212.337 5.93604" stroke="white" stroke-width="0.5032" stroke-miterlimit="10"/>
	<path d="M213.326 25.7217L206.401 8.90356" stroke="white" stroke-width="0.5032" stroke-miterlimit="10"/>
	<path d="M209.369 27.7005L200.465 10.8823" stroke="white" stroke-width="0.5032" stroke-miterlimit="10"/>
	<path d="M204.422 30.6685L194.529 14.8396" stroke="white" stroke-width="0.5032" stroke-miterlimit="10"/>
	<path d="M200.465 33.6365L189.583 17.8076" stroke="white" stroke-width="0.5032" stroke-miterlimit="10"/>
	<path d="M201.455 42.54L184.636 21.7646" stroke="white" stroke-width="0.5032" stroke-miterlimit="10"/>
	<path d="M307.31 159.278L289.503 140.481" stroke="white" stroke-width="0.5032" stroke-miterlimit="10"/>
	<path d="M192.551 40.5614L179.69 26.7112" stroke="white" stroke-width="0.5032" stroke-miterlimit="10"/>
	<path d="M312.257 154.331L298.406 141.47" stroke="white" stroke-width="0.5032" stroke-miterlimit="10"/>
	<path d="M189.583 43.5297L174.743 30.6687" stroke="white" stroke-width="0.5032" stroke-miterlimit="10"/>
	<path d="M316.214 149.385L301.374 137.513" stroke="white" stroke-width="0.5032" stroke-miterlimit="10"/>
	<path d="M185.626 47.4864L170.786 35.6147" stroke="white" stroke-width="0.5032" stroke-miterlimit="10"/>
	<path d="M320.171 144.439L304.342 133.556" stroke="white" stroke-width="0.5032" stroke-miterlimit="10"/>
	<path d="M182.658 51.4438L166.829 41.5508" stroke="white" stroke-width="0.5032" stroke-miterlimit="10"/>
	<path d="M324.128 138.502L307.31 129.599" stroke="white" stroke-width="0.5032" stroke-miterlimit="10"/>
	<path d="M186.615 59.3583L163.861 46.4973" stroke="white" stroke-width="0.5032" stroke-miterlimit="10"/>
	<path d="M327.096 133.556L303.353 121.684" stroke="white" stroke-width="0.5032" stroke-miterlimit="10"/>
	<path d="M177.711 60.3475L160.893 52.4331" stroke="white" stroke-width="0.5032" stroke-miterlimit="10"/>
	<path d="M329.075 127.62L311.267 120.695" stroke="white" stroke-width="0.5032" stroke-miterlimit="10"/>
	<path d="M175.733 65.2943L157.925 58.3691" stroke="white" stroke-width="0.5032" stroke-miterlimit="10"/>
	<path d="M331.054 121.685L313.246 115.749" stroke="white" stroke-width="0.5032" stroke-miterlimit="10"/>
	<path d="M173.754 70.2408L155.947 64.3049" stroke="white" stroke-width="0.5032" stroke-miterlimit="10"/>
	<path d="M333.032 114.759L315.225 110.802" stroke="white" stroke-width="0.5032" stroke-miterlimit="10"/>
	<path d="M172.765 75.1872L153.968 70.2407" stroke="white" stroke-width="0.5032" stroke-miterlimit="10"/>
	<path d="M335.011 108.824L316.214 105.856" stroke="white" stroke-width="0.5032" stroke-miterlimit="10"/>
	<path d="M178.7 81.123L152.979 77.1658" stroke="white" stroke-width="0.5032" stroke-miterlimit="10"/>
	<path d="M335.011 102.888L309.289 99.9197" stroke="white" stroke-width="0.5032" stroke-miterlimit="10"/>
	<path d="M170.786 85.0804L151.989 83.1018" stroke="white" stroke-width="0.5032" stroke-miterlimit="10"/>
	<path d="M336 95.9624L317.203 94.9731" stroke="white" stroke-width="0.5032" stroke-miterlimit="10"/>
	<path d="M169.797 90.0269H151" stroke="white" stroke-width="0.5032" stroke-miterlimit="10"/>
	<path d="M336 90.0269H317.203" stroke="white" stroke-width="0.5032" stroke-miterlimit="10"/>
	<path d="M169.797 94.9731L151 95.9624" stroke="white" stroke-width="0.5032" stroke-miterlimit="10"/>
	<path d="M335.011 83.1018L316.214 85.0804" stroke="white" stroke-width="0.5032" stroke-miterlimit="10"/>
	<path d="M170.786 100.909L151.989 102.888" stroke="white" stroke-width="0.5032" stroke-miterlimit="10"/>
	<path d="M335.011 77.1658L316.214 80.1337" stroke="white" stroke-width="0.5032" stroke-miterlimit="10"/>
	<path d="M178.7 103.877L152.979 108.823" stroke="white" stroke-width="0.5032" stroke-miterlimit="10"/>
	<path d="M333.032 70.2407L308.299 77.1659" stroke="white" stroke-width="0.5032" stroke-miterlimit="10"/>
	<path d="M172.765 110.802L153.968 114.759" stroke="white" stroke-width="0.5032" stroke-miterlimit="10"/>
	<path d="M331.054 64.3049L313.246 70.2408" stroke="white" stroke-width="0.5032" stroke-miterlimit="10"/>
	<path d="M173.754 115.749L155.947 121.685" stroke="white" stroke-width="0.5032" stroke-miterlimit="10"/>
	<path d="M329.075 58.3691L311.267 65.2943" stroke="white" stroke-width="0.5032" stroke-miterlimit="10"/>
	<path d="M175.733 120.695L157.925 127.62" stroke="white" stroke-width="0.5032" stroke-miterlimit="10"/>
	<path d="M327.096 52.4331L309.289 60.3475" stroke="white" stroke-width="0.5032" stroke-miterlimit="10"/>
	<path d="M177.711 124.653L160.893 133.556" stroke="white" stroke-width="0.5032" stroke-miterlimit="10"/>
	<path d="M324.128 46.4973L307.31 56.3904" stroke="white" stroke-width="0.5032" stroke-miterlimit="10"/>
	<path d="M186.615 125.642L163.861 138.503" stroke="white" stroke-width="0.5032" stroke-miterlimit="10"/>
	<path d="M320.171 41.5508L298.406 55.401" stroke="white" stroke-width="0.5032" stroke-miterlimit="10"/>
	<path d="M182.658 133.556L166.829 144.439" stroke="white" stroke-width="0.5032" stroke-miterlimit="10"/>
	<path d="M316.214 35.6147L301.374 47.4864" stroke="white" stroke-width="0.5032" stroke-miterlimit="10"/>
	<path d="M185.626 137.513L170.786 149.385" stroke="white" stroke-width="0.5032" stroke-miterlimit="10"/>
	<path d="M312.257 30.6687L298.406 43.5297" stroke="white" stroke-width="0.5032" stroke-miterlimit="10"/>
	<path d="M189.583 141.47L174.743 154.331" stroke="white" stroke-width="0.5032" stroke-miterlimit="10"/>
	<path d="M307.31 26.7112L294.449 40.5614" stroke="white" stroke-width="0.5032" stroke-miterlimit="10"/>
	<path d="M192.551 145.428L179.69 159.278" stroke="white" stroke-width="0.5032" stroke-miterlimit="10"/>
	<path d="M303.353 21.7646L290.492 36.6042" stroke="white" stroke-width="0.5032" stroke-miterlimit="10"/>
	<path d="M201.455 143.449L184.636 163.235" stroke="white" stroke-width="0.5032" stroke-miterlimit="10"/>
	<path d="M298.406 17.8076L282.577 39.5723" stroke="white" stroke-width="0.5032" stroke-miterlimit="10"/>
	<path d="M292.47 14.8396L282.577 30.6685" stroke="white" stroke-width="0.5032" stroke-miterlimit="10"/>
	<path d="M287.524 10.8823L277.631 27.7005" stroke="white" stroke-width="0.5032" stroke-miterlimit="10"/>
	<path d="M281.588 8.90356L273.674 25.7217" stroke="white" stroke-width="0.5032" stroke-miterlimit="10"/>
	<path d="M275.653 5.93604L266.749 30.6687" stroke="white" stroke-width="0.5032" stroke-miterlimit="10"/>
	<path d="M268.727 3.95728L263.781 22.7541" stroke="white" stroke-width="0.5032" stroke-miterlimit="10"/>
	<path d="M262.791 2.96777L258.834 20.7753" stroke="white" stroke-width="0.5032" stroke-miterlimit="10"/>
	<path d="M256.855 0.989258L253.887 19.786" stroke="white" stroke-width="0.5032" stroke-miterlimit="10"/>
	<path d="M249.93 0.989258L248.941 19.786" stroke="white" stroke-width="0.5032" stroke-miterlimit="10"/>
	<path d="M195.433 88.251V84.379C195.433 82.0324 196.093 80.1844 197.413 78.835C198.733 77.4857 200.551 76.811 202.869 76.811C205.245 76.811 207.093 77.4857 208.413 78.835C209.733 80.1844 210.393 82.0324 210.393 84.379V99.427C210.393 101.803 209.747 103.651 208.457 104.971C207.166 106.291 205.347 106.951 203.001 106.951C200.742 106.951 198.953 106.291 197.633 104.971C196.342 103.651 195.697 101.803 195.697 99.427V98.591H200.757V99.339C200.757 101.48 201.505 102.551 203.001 102.551C204.497 102.551 205.245 101.48 205.245 99.339V94.015C204.394 95.1884 203.147 95.775 201.505 95.775C199.627 95.775 198.146 95.115 197.061 93.795C195.975 92.4457 195.433 90.5977 195.433 88.251ZM200.493 88.251C200.493 89.219 200.698 89.9817 201.109 90.539C201.549 91.0964 202.135 91.375 202.869 91.375C203.397 91.375 203.837 91.2724 204.189 91.067C204.57 90.8324 204.922 90.5097 205.245 90.099V84.159C205.245 83.2497 205.025 82.531 204.585 82.003C204.174 81.475 203.602 81.211 202.869 81.211C202.135 81.211 201.549 81.475 201.109 82.003C200.698 82.531 200.493 83.2497 200.493 84.159V88.251ZM213.909 88.251V84.379C213.909 82.0324 214.569 80.1844 215.889 78.835C217.209 77.4857 219.028 76.811 221.345 76.811C223.721 76.811 225.569 77.4857 226.889 78.835C228.209 80.1844 228.869 82.0324 228.869 84.379V99.427C228.869 101.803 228.224 103.651 226.933 104.971C225.642 106.291 223.824 106.951 221.477 106.951C219.218 106.951 217.429 106.291 216.109 104.971C214.818 103.651 214.173 101.803 214.173 99.427V98.591H219.233V99.339C219.233 101.48 219.981 102.551 221.477 102.551C222.973 102.551 223.721 101.48 223.721 99.339V94.015C222.87 95.1884 221.624 95.775 219.981 95.775C218.104 95.775 216.622 95.115 215.537 93.795C214.452 92.4457 213.909 90.5977 213.909 88.251ZM218.969 88.251C218.969 89.219 219.174 89.9817 219.585 90.539C220.025 91.0964 220.612 91.375 221.345 91.375C221.873 91.375 222.313 91.2724 222.665 91.067C223.046 90.8324 223.398 90.5097 223.721 90.099V84.159C223.721 83.2497 223.501 82.531 223.061 82.003C222.65 81.475 222.078 81.211 221.345 81.211C220.612 81.211 220.025 81.475 219.585 82.003C219.174 82.531 218.969 83.2497 218.969 84.159V88.251ZM239.218 88.251V84.379C239.218 82.0324 239.878 80.1844 241.198 78.835C242.518 77.4857 244.336 76.811 246.654 76.811C249.03 76.811 250.878 77.4857 252.198 78.835C253.518 80.1844 254.178 82.0324 254.178 84.379V99.427C254.178 101.803 253.532 103.651 252.242 104.971C250.951 106.291 249.132 106.951 246.786 106.951C244.527 106.951 242.738 106.291 241.418 104.971C240.127 103.651 239.482 101.803 239.482 99.427V98.591H244.542V99.339C244.542 101.48 245.29 102.551 246.786 102.551C248.282 102.551 249.03 101.48 249.03 99.339V94.015C248.179 95.1884 246.932 95.775 245.29 95.775C243.412 95.775 241.931 95.115 240.846 93.795C239.76 92.4457 239.218 90.5977 239.218 88.251ZM244.278 88.251C244.278 89.219 244.483 89.9817 244.894 90.539C245.334 91.0964 245.92 91.375 246.654 91.375C247.182 91.375 247.622 91.2724 247.974 91.067C248.355 90.8324 248.707 90.5097 249.03 90.099V84.159C249.03 83.2497 248.81 82.531 248.37 82.003C247.959 81.475 247.387 81.211 246.654 81.211C245.92 81.211 245.334 81.475 244.894 82.003C244.483 82.531 244.278 83.2497 244.278 84.159V88.251ZM257.694 88.251V84.379C257.694 82.0324 258.354 80.1844 259.674 78.835C260.994 77.4857 262.813 76.811 265.13 76.811C267.506 76.811 269.354 77.4857 270.674 78.835C271.994 80.1844 272.654 82.0324 272.654 84.379V99.427C272.654 101.803 272.009 103.651 270.718 104.971C269.428 106.291 267.609 106.951 265.262 106.951C263.004 106.951 261.214 106.291 259.894 104.971C258.604 103.651 257.958 101.803 257.958 99.427V98.591H263.018V99.339C263.018 101.48 263.766 102.551 265.262 102.551C266.758 102.551 267.506 101.48 267.506 99.339V94.015C266.656 95.1884 265.409 95.775 263.766 95.775C261.889 95.775 260.408 95.115 259.322 93.795C258.237 92.4457 257.694 90.5977 257.694 88.251ZM262.754 88.251C262.754 89.219 262.96 89.9817 263.37 90.539C263.81 91.0964 264.397 91.375 265.13 91.375C265.658 91.375 266.098 91.2724 266.45 91.067C266.832 90.8324 267.184 90.5097 267.506 90.099V84.159C267.506 83.2497 267.286 82.531 266.846 82.003C266.436 81.475 265.864 81.211 265.13 81.211C264.397 81.211 263.81 81.475 263.37 82.003C262.96 82.531 262.754 83.2497 262.754 84.159V88.251ZM276.171 88.251V84.379C276.171 82.0324 276.831 80.1844 278.151 78.835C279.471 77.4857 281.289 76.811 283.607 76.811C285.983 76.811 287.831 77.4857 289.151 78.835C290.471 80.1844 291.131 82.0324 291.131 84.379V99.427C291.131 101.803 290.485 103.651 289.195 104.971C287.904 106.291 286.085 106.951 283.739 106.951C281.48 106.951 279.691 106.291 278.371 104.971C277.08 103.651 276.435 101.803 276.435 99.427V98.591H281.495V99.339C281.495 101.48 282.243 102.551 283.739 102.551C285.235 102.551 285.983 101.48 285.983 99.339V94.015C285.132 95.1884 283.885 95.775 282.243 95.775C280.365 95.775 278.884 95.115 277.799 93.795C276.713 92.4457 276.171 90.5977 276.171 88.251ZM281.231 88.251C281.231 89.219 281.436 89.9817 281.847 90.539C282.287 91.0964 282.873 91.375 283.607 91.375C284.135 91.375 284.575 91.2724 284.927 91.067C285.308 90.8324 285.66 90.5097 285.983 90.099V84.159C285.983 83.2497 285.763 82.531 285.323 82.003C284.912 81.475 284.34 81.211 283.607 81.211C282.873 81.211 282.287 81.475 281.847 82.003C281.436 82.531 281.231 83.2497 281.231 84.159V88.251Z" fill="white"/>
	<path d="M95.7247 141.47C95.7247 142.97 95.2547 144.16 94.3147 145.04C93.3947 145.9 92.1347 146.33 90.5347 146.33C88.9147 146.33 87.6347 145.9 86.6947 145.04C85.7547 144.16 85.2847 142.97 85.2847 141.47V139.22C85.2847 138.34 85.4547 137.62 85.7947 137.06C86.1347 136.5 86.6747 136.01 87.4147 135.59C86.8347 135.23 86.3847 134.76 86.0647 134.18C85.7647 133.58 85.6147 132.87 85.6147 132.05V130.88C85.6147 129.3 86.0447 128.06 86.9047 127.16C87.7847 126.24 88.9947 125.78 90.5347 125.78C92.0547 125.78 93.2447 126.24 94.1047 127.16C94.9847 128.06 95.4247 129.3 95.4247 130.88V132.05C95.4247 132.87 95.2647 133.58 94.9447 134.18C94.6247 134.76 94.1747 135.23 93.5947 135.59C94.3347 135.99 94.8747 136.48 95.2147 137.06C95.5547 137.62 95.7247 138.34 95.7247 139.22V141.47ZM91.9147 130.64C91.9147 130.02 91.7947 129.54 91.5547 129.2C91.3147 128.84 90.9747 128.66 90.5347 128.66C90.0947 128.66 89.7447 128.84 89.4847 129.2C89.2447 129.54 89.1247 130.02 89.1247 130.64V132.29C89.1247 132.91 89.2447 133.4 89.4847 133.76C89.7447 134.1 90.0947 134.27 90.5347 134.27C90.9747 134.27 91.3147 134.1 91.5547 133.76C91.7947 133.4 91.9147 132.91 91.9147 132.29V130.64ZM90.5347 143.45C91.0147 143.45 91.4047 143.28 91.7047 142.94C92.0047 142.58 92.1547 142.09 92.1547 141.47V139.22C92.1547 138.58 92.0047 138.08 91.7047 137.72C91.4047 137.36 91.0147 137.18 90.5347 137.18C90.0347 137.18 89.6247 137.36 89.3047 137.72C89.0047 138.08 88.8547 138.58 88.8547 139.22V141.47C88.8547 142.09 89.0047 142.58 89.3047 142.94C89.6247 143.28 90.0347 143.45 90.5347 143.45Z" fill="white"/>
	<path d="M34.8913 166L34.8773 158.86L31.3353 164.81H30.6913L27.1493 158.902V166H25.8053V156.2H26.9533L31.0413 163.088L35.0733 156.2H36.2213L36.2353 166H34.8913ZM45.7678 162.332C45.7678 162.435 45.7584 162.57 45.7398 162.738H39.7198C39.8038 163.391 40.0884 163.919 40.5738 164.32C41.0684 164.712 41.6798 164.908 42.4078 164.908C43.2944 164.908 44.0084 164.609 44.5498 164.012L45.2918 164.88C44.9558 165.272 44.5358 165.571 44.0318 165.776C43.5371 165.981 42.9818 166.084 42.3658 166.084C41.5818 166.084 40.8864 165.925 40.2798 165.608C39.6731 165.281 39.2018 164.829 38.8658 164.25C38.5391 163.671 38.3758 163.018 38.3758 162.29C38.3758 161.571 38.5344 160.923 38.8518 160.344C39.1784 159.765 39.6218 159.317 40.1818 159C40.7511 158.673 41.3904 158.51 42.0998 158.51C42.8091 158.51 43.4391 158.673 43.9898 159C44.5498 159.317 44.9838 159.765 45.2918 160.344C45.6091 160.923 45.7678 161.585 45.7678 162.332ZM42.0998 159.644C41.4558 159.644 40.9144 159.84 40.4758 160.232C40.0464 160.624 39.7944 161.137 39.7198 161.772H44.4798C44.4051 161.147 44.1484 160.638 43.7098 160.246C43.2804 159.845 42.7438 159.644 42.0998 159.644ZM51.0868 166.084C50.3308 166.084 49.6541 165.921 49.0568 165.594C48.4688 165.267 48.0068 164.819 47.6708 164.25C47.3348 163.671 47.1668 163.018 47.1668 162.29C47.1668 161.562 47.3348 160.913 47.6708 160.344C48.0068 159.765 48.4688 159.317 49.0568 159C49.6541 158.673 50.3308 158.51 51.0868 158.51C51.7588 158.51 52.3561 158.645 52.8788 158.916C53.4108 159.187 53.8214 159.579 54.1108 160.092L53.0888 160.75C52.8554 160.395 52.5661 160.129 52.2208 159.952C51.8754 159.775 51.4928 159.686 51.0728 159.686C50.5874 159.686 50.1488 159.793 49.7568 160.008C49.3741 160.223 49.0708 160.531 48.8468 160.932C48.6321 161.324 48.5248 161.777 48.5248 162.29C48.5248 162.813 48.6321 163.275 48.8468 163.676C49.0708 164.068 49.3741 164.371 49.7568 164.586C50.1488 164.801 50.5874 164.908 51.0728 164.908C51.4928 164.908 51.8754 164.819 52.2208 164.642C52.5661 164.465 52.8554 164.199 53.0888 163.844L54.1108 164.488C53.8214 165.001 53.4108 165.398 52.8788 165.678C52.3561 165.949 51.7588 166.084 51.0868 166.084ZM61.2851 159.756H58.5691V166H57.2251V159.756H54.5091V158.58H61.2851V159.756ZM65.5093 166.084C64.772 166.084 64.1093 165.921 63.5213 165.594C62.9333 165.267 62.4713 164.819 62.1353 164.25C61.8086 163.671 61.6453 163.018 61.6453 162.29C61.6453 161.562 61.8086 160.913 62.1353 160.344C62.4713 159.765 62.9333 159.317 63.5213 159C64.1093 158.673 64.772 158.51 65.5093 158.51C66.2466 158.51 66.9046 158.673 67.4833 159C68.0713 159.317 68.5286 159.765 68.8553 160.344C69.1913 160.913 69.3593 161.562 69.3593 162.29C69.3593 163.018 69.1913 163.671 68.8553 164.25C68.5286 164.819 68.0713 165.267 67.4833 165.594C66.9046 165.921 66.2466 166.084 65.5093 166.084ZM65.5093 164.908C65.9853 164.908 66.41 164.801 66.7833 164.586C67.166 164.362 67.4646 164.054 67.6793 163.662C67.894 163.261 68.0013 162.803 68.0013 162.29C68.0013 161.777 67.894 161.324 67.6793 160.932C67.4646 160.531 67.166 160.223 66.7833 160.008C66.41 159.793 65.9853 159.686 65.5093 159.686C65.0333 159.686 64.604 159.793 64.2213 160.008C63.848 160.223 63.5493 160.531 63.3253 160.932C63.1106 161.324 63.0033 161.777 63.0033 162.29C63.0033 162.803 63.1106 163.261 63.3253 163.662C63.5493 164.054 63.848 164.362 64.2213 164.586C64.604 164.801 65.0333 164.908 65.5093 164.908ZM80.1138 162.15C81.0751 162.393 81.5558 162.995 81.5558 163.956C81.5558 164.609 81.3085 165.113 80.8138 165.468C80.3285 165.823 79.6005 166 78.6298 166H75.0598V158.58H78.5038C79.3811 158.58 80.0671 158.748 80.5618 159.084C81.0565 159.411 81.3038 159.877 81.3038 160.484C81.3038 160.876 81.1965 161.217 80.9818 161.506C80.7765 161.786 80.4871 162.001 80.1138 162.15ZM76.3758 161.772H78.3918C78.9051 161.772 79.2925 161.679 79.5538 161.492C79.8245 161.305 79.9598 161.035 79.9598 160.68C79.9598 159.971 79.4371 159.616 78.3918 159.616H76.3758V161.772ZM78.5318 164.964C79.0918 164.964 79.5118 164.875 79.7918 164.698C80.0718 164.521 80.2118 164.245 80.2118 163.872C80.2118 163.489 80.0811 163.205 79.8198 163.018C79.5678 162.831 79.1665 162.738 78.6158 162.738H76.3758V164.964H78.5318ZM91.3532 158.51C92.0719 158.51 92.7159 158.669 93.2852 158.986C93.8545 159.303 94.2979 159.747 94.6152 160.316C94.9419 160.885 95.1052 161.543 95.1052 162.29C95.1052 163.037 94.9419 163.699 94.6152 164.278C94.2979 164.847 93.8545 165.291 93.2852 165.608C92.7159 165.925 92.0719 166.084 91.3532 166.084C90.8212 166.084 90.3312 165.981 89.8832 165.776C89.4445 165.571 89.0712 165.272 88.7632 164.88V168.716H87.4192V158.58H88.7072V159.756C89.0059 159.345 89.3839 159.037 89.8412 158.832C90.2985 158.617 90.8025 158.51 91.3532 158.51ZM91.2412 164.908C91.7172 164.908 92.1419 164.801 92.5152 164.586C92.8979 164.362 93.1965 164.054 93.4112 163.662C93.6352 163.261 93.7472 162.803 93.7472 162.29C93.7472 161.777 93.6352 161.324 93.4112 160.932C93.1965 160.531 92.8979 160.223 92.5152 160.008C92.1419 159.793 91.7172 159.686 91.2412 159.686C90.7745 159.686 90.3499 159.798 89.9672 160.022C89.5939 160.237 89.2952 160.54 89.0712 160.932C88.8565 161.324 88.7492 161.777 88.7492 162.29C88.7492 162.803 88.8565 163.261 89.0712 163.662C89.2859 164.054 89.5845 164.362 89.9672 164.586C90.3499 164.801 90.7745 164.908 91.2412 164.908ZM103.764 162.332C103.764 162.435 103.755 162.57 103.736 162.738H97.7159C97.7999 163.391 98.0845 163.919 98.5699 164.32C99.0645 164.712 99.6759 164.908 100.404 164.908C101.291 164.908 102.005 164.609 102.546 164.012L103.288 164.88C102.952 165.272 102.532 165.571 102.028 165.776C101.533 165.981 100.978 166.084 100.362 166.084C99.5779 166.084 98.8825 165.925 98.2759 165.608C97.6692 165.281 97.1979 164.829 96.8619 164.25C96.5352 163.671 96.3719 163.018 96.3719 162.29C96.3719 161.571 96.5305 160.923 96.8479 160.344C97.1745 159.765 97.6179 159.317 98.1779 159C98.7472 158.673 99.3865 158.51 100.096 158.51C100.805 158.51 101.435 158.673 101.986 159C102.546 159.317 102.98 159.765 103.288 160.344C103.605 160.923 103.764 161.585 103.764 162.332ZM100.096 159.644C99.4519 159.644 98.9105 159.84 98.4719 160.232C98.0425 160.624 97.7905 161.137 97.7159 161.772H102.476C102.401 161.147 102.145 160.638 101.706 160.246C101.277 159.845 100.74 159.644 100.096 159.644ZM105.849 158.58H107.193V163.984L111.743 158.58H112.961V166H111.617V160.596L107.081 166H105.849V158.58ZM109.321 157.614C108.63 157.614 108.094 157.451 107.711 157.124C107.328 156.788 107.132 156.307 107.123 155.682H108.033C108.042 156.027 108.159 156.307 108.383 156.522C108.616 156.727 108.924 156.83 109.307 156.83C109.69 156.83 109.998 156.727 110.231 156.522C110.464 156.307 110.586 156.027 110.595 155.682H111.533C111.524 156.307 111.323 156.788 110.931 157.124C110.539 157.451 110.002 157.614 109.321 157.614ZM121.1 159.756H118.384V166H117.04V159.756H114.324V158.58H121.1V159.756ZM122.474 158.58H123.818V163.984L128.368 158.58H129.586V166H128.242V160.596L123.706 166H122.474V158.58ZM132.195 158.58H133.539V161.73H137.767V158.58H139.111V166H137.767V162.892H133.539V166H132.195V158.58ZM147.184 159.756H143.068V166H141.724V158.58H147.184V159.756ZM154.938 162.332C154.938 162.435 154.928 162.57 154.91 162.738H148.89C148.974 163.391 149.258 163.919 149.744 164.32C150.238 164.712 150.85 164.908 151.578 164.908C152.464 164.908 153.178 164.609 153.72 164.012L154.462 164.88C154.126 165.272 153.706 165.571 153.202 165.776C152.707 165.981 152.152 166.084 151.536 166.084C150.752 166.084 150.056 165.925 149.45 165.608C148.843 165.281 148.372 164.829 148.036 164.25C147.709 163.671 147.546 163.018 147.546 162.29C147.546 161.571 147.704 160.923 148.022 160.344C148.348 159.765 148.792 159.317 149.352 159C149.921 158.673 150.56 158.51 151.27 158.51C151.979 158.51 152.609 158.673 153.16 159C153.72 159.317 154.154 159.765 154.462 160.344C154.779 160.923 154.938 161.585 154.938 162.332ZM151.27 159.644C150.626 159.644 150.084 159.84 149.646 160.232C149.216 160.624 148.964 161.137 148.89 161.772H153.65C153.575 161.147 153.318 160.638 152.88 160.246C152.45 159.845 151.914 159.644 151.27 159.644Z" fill="white"/>
	<path d="M360.159 164.782V168.142H358.857V166H350.793L350.779 168.142H349.477L349.491 164.782H349.967C350.583 164.745 351.017 164.259 351.269 163.326C351.521 162.383 351.675 161.058 351.731 159.35L351.829 156.2H358.717V164.782H360.159ZM352.963 159.476C352.916 160.857 352.804 162.001 352.627 162.906C352.459 163.811 352.184 164.437 351.801 164.782H357.331V157.418H353.033L352.963 159.476ZM364.863 166.084C364.125 166.084 363.463 165.921 362.875 165.594C362.287 165.267 361.825 164.819 361.489 164.25C361.162 163.671 360.999 163.018 360.999 162.29C360.999 161.562 361.162 160.913 361.489 160.344C361.825 159.765 362.287 159.317 362.875 159C363.463 158.673 364.125 158.51 364.863 158.51C365.6 158.51 366.258 158.673 366.837 159C367.425 159.317 367.882 159.765 368.209 160.344C368.545 160.913 368.713 161.562 368.713 162.29C368.713 163.018 368.545 163.671 368.209 164.25C367.882 164.819 367.425 165.267 366.837 165.594C366.258 165.921 365.6 166.084 364.863 166.084ZM364.863 164.908C365.339 164.908 365.763 164.801 366.137 164.586C366.519 164.362 366.818 164.054 367.033 163.662C367.247 163.261 367.355 162.803 367.355 162.29C367.355 161.777 367.247 161.324 367.033 160.932C366.818 160.531 366.519 160.223 366.137 160.008C365.763 159.793 365.339 159.686 364.863 159.686C364.387 159.686 363.957 159.793 363.575 160.008C363.201 160.223 362.903 160.531 362.679 160.932C362.464 161.324 362.357 161.777 362.357 162.29C362.357 162.803 362.464 163.261 362.679 163.662C362.903 164.054 363.201 164.362 363.575 164.586C363.957 164.801 364.387 164.908 364.863 164.908ZM377.297 162.864H375.757V166H374.413V158.58H375.757V161.716H377.325L379.733 158.58H381.175L378.361 162.15L381.371 166H379.789L377.297 162.864ZM385.712 166.084C384.975 166.084 384.312 165.921 383.724 165.594C383.136 165.267 382.674 164.819 382.338 164.25C382.012 163.671 381.848 163.018 381.848 162.29C381.848 161.562 382.012 160.913 382.338 160.344C382.674 159.765 383.136 159.317 383.724 159C384.312 158.673 384.975 158.51 385.712 158.51C386.45 158.51 387.108 158.673 387.686 159C388.274 159.317 388.732 159.765 389.058 160.344C389.394 160.913 389.562 161.562 389.562 162.29C389.562 163.018 389.394 163.671 389.058 164.25C388.732 164.819 388.274 165.267 387.686 165.594C387.108 165.921 386.45 166.084 385.712 166.084ZM385.712 164.908C386.188 164.908 386.613 164.801 386.986 164.586C387.369 164.362 387.668 164.054 387.882 163.662C388.097 163.261 388.204 162.803 388.204 162.29C388.204 161.777 388.097 161.324 387.882 160.932C387.668 160.531 387.369 160.223 386.986 160.008C386.613 159.793 386.188 159.686 385.712 159.686C385.236 159.686 384.807 159.793 384.424 160.008C384.051 160.223 383.752 160.531 383.528 160.932C383.314 161.324 383.206 161.777 383.206 162.29C383.206 162.803 383.314 163.261 383.528 163.662C383.752 164.054 384.051 164.362 384.424 164.586C384.807 164.801 385.236 164.908 385.712 164.908ZM391.503 158.58H392.847V161.73H397.075V158.58H398.419V166H397.075V162.892H392.847V166H391.503V158.58ZM408.956 164.824V167.778H407.682V166H401.032V158.58H402.376V164.824H406.436V158.58H407.78V164.824H408.956ZM413.344 158.51C414.371 158.51 415.155 158.762 415.696 159.266C416.247 159.77 416.522 160.521 416.522 161.52V166H415.248V165.02C415.024 165.365 414.702 165.631 414.282 165.818C413.872 165.995 413.382 166.084 412.812 166.084C411.982 166.084 411.314 165.883 410.81 165.482C410.316 165.081 410.068 164.553 410.068 163.9C410.068 163.247 410.306 162.724 410.782 162.332C411.258 161.931 412.014 161.73 413.05 161.73H415.178V161.464C415.178 160.885 415.01 160.442 414.674 160.134C414.338 159.826 413.844 159.672 413.19 159.672C412.752 159.672 412.322 159.747 411.902 159.896C411.482 160.036 411.128 160.227 410.838 160.47L410.278 159.462C410.661 159.154 411.118 158.921 411.65 158.762C412.182 158.594 412.747 158.51 413.344 158.51ZM413.036 165.048C413.55 165.048 413.993 164.936 414.366 164.712C414.74 164.479 415.01 164.152 415.178 163.732V162.696H413.106C411.968 162.696 411.398 163.079 411.398 163.844C411.398 164.217 411.543 164.511 411.832 164.726C412.122 164.941 412.523 165.048 413.036 165.048ZM427.756 162.15C428.718 162.393 429.198 162.995 429.198 163.956C429.198 164.609 428.951 165.113 428.456 165.468C427.971 165.823 427.243 166 426.272 166H422.702V158.58H426.146C427.024 158.58 427.71 158.748 428.204 159.084C428.699 159.411 428.946 159.877 428.946 160.484C428.946 160.876 428.839 161.217 428.624 161.506C428.419 161.786 428.13 162.001 427.756 162.15ZM424.018 161.772H426.034C426.548 161.772 426.935 161.679 427.196 161.492C427.467 161.305 427.602 161.035 427.602 160.68C427.602 159.971 427.08 159.616 426.034 159.616H424.018V161.772ZM426.174 164.964C426.734 164.964 427.154 164.875 427.434 164.698C427.714 164.521 427.854 164.245 427.854 163.872C427.854 163.489 427.724 163.205 427.462 163.018C427.21 162.831 426.809 162.738 426.258 162.738H424.018V164.964H426.174ZM434.48 166.084C433.743 166.084 433.08 165.921 432.492 165.594C431.904 165.267 431.442 164.819 431.106 164.25C430.779 163.671 430.616 163.018 430.616 162.29C430.616 161.562 430.779 160.913 431.106 160.344C431.442 159.765 431.904 159.317 432.492 159C433.08 158.673 433.743 158.51 434.48 158.51C435.217 158.51 435.875 158.673 436.454 159C437.042 159.317 437.499 159.765 437.826 160.344C438.162 160.913 438.33 161.562 438.33 162.29C438.33 163.018 438.162 163.671 437.826 164.25C437.499 164.819 437.042 165.267 436.454 165.594C435.875 165.921 435.217 166.084 434.48 166.084ZM434.48 164.908C434.956 164.908 435.381 164.801 435.754 164.586C436.137 164.362 436.435 164.054 436.65 163.662C436.865 163.261 436.972 162.803 436.972 162.29C436.972 161.777 436.865 161.324 436.65 160.932C436.435 160.531 436.137 160.223 435.754 160.008C435.381 159.793 434.956 159.686 434.48 159.686C434.004 159.686 433.575 159.793 433.192 160.008C432.819 160.223 432.52 160.531 432.296 160.932C432.081 161.324 431.974 161.777 431.974 162.29C431.974 162.803 432.081 163.261 432.296 163.662C432.52 164.054 432.819 164.362 433.192 164.586C433.575 164.801 434.004 164.908 434.48 164.908ZM446.586 158.58V166H445.242V159.756H442.05L441.966 161.408C441.919 162.407 441.831 163.242 441.7 163.914C441.569 164.577 441.355 165.109 441.056 165.51C440.757 165.911 440.342 166.112 439.81 166.112C439.567 166.112 439.292 166.07 438.984 165.986L439.068 164.852C439.189 164.88 439.301 164.894 439.404 164.894C439.777 164.894 440.057 164.731 440.244 164.404C440.431 164.077 440.552 163.69 440.608 163.242C440.664 162.794 440.715 162.155 440.762 161.324L440.888 158.58H446.586ZM449.185 158.58H450.529V161.73H454.757V158.58H456.101V166H454.757V162.892H450.529V166H449.185V158.58ZM462.06 161.1C462.993 161.109 463.707 161.324 464.202 161.744C464.697 162.164 464.944 162.757 464.944 163.522C464.944 164.325 464.673 164.945 464.132 165.384C463.6 165.813 462.835 166.023 461.836 166.014L458.714 166V158.58H460.058V161.086L462.06 161.1ZM466.05 158.58H467.394V166H466.05V158.58ZM461.738 164.992C462.345 165.001 462.802 164.88 463.11 164.628C463.427 164.376 463.586 164.003 463.586 163.508C463.586 163.023 463.432 162.668 463.124 162.444C462.816 162.22 462.354 162.103 461.738 162.094L460.058 162.066V164.978L461.738 164.992Z" fill="white"/>
	<path d="M409 56C399.389 56 390.019 59.0106 382.206 64.6091C374.393 70.2075 368.531 78.1125 365.441 87.2138C362.352 96.3151 362.191 106.156 364.981 115.353C367.771 124.551 373.372 132.643 380.997 138.494C388.622 144.345 397.889 147.661 407.495 147.975C417.101 148.29 426.565 145.587 434.556 140.248C442.548 134.908 448.666 127.199 452.052 118.204C455.437 109.208 455.92 99.3782 453.433 90.0943L409 102V56Z" fill="white"/>
	<circle cx="409" cy="102" r="41" fill="#004798"/>
	<path d="M407.229 96.93V102H403.779V96.93H397.719V94.2L404.439 82.23H407.229V94.08H408.669V96.93H407.229ZM400.659 94.08H403.779V88.5L400.659 94.08ZM416.323 89.13C417.623 89.13 418.643 89.59 419.383 90.51C420.143 91.41 420.523 92.66 420.523 94.26V97.2C420.523 98.8 420.053 100.06 419.113 100.98C418.173 101.88 416.893 102.33 415.273 102.33C413.693 102.33 412.493 101.88 411.673 100.98C410.873 100.06 410.473 98.8 410.473 97.2V96.72H413.923V97.2C413.923 97.84 414.043 98.35 414.283 98.73C414.523 99.09 414.903 99.27 415.423 99.27C415.943 99.27 416.323 99.09 416.563 98.73C416.803 98.35 416.923 97.84 416.923 97.2V94.26C416.923 93.6 416.763 93.08 416.443 92.7C416.143 92.32 415.723 92.13 415.183 92.13C414.743 92.13 414.343 92.26 413.983 92.52C413.643 92.76 413.403 93.11 413.263 93.57H410.923V82.23H419.713V85.32H414.163V89.82C414.443 89.62 414.753 89.46 415.093 89.34C415.453 89.2 415.863 89.13 416.323 89.13Z" fill="white"/>
	<path d="M399.864 120.782V124.142H398.562V122H390.498L390.484 124.142H389.182L389.196 120.782H389.672C390.288 120.745 390.722 120.259 390.974 119.326C391.226 118.383 391.38 117.058 391.436 115.35L391.534 112.2H398.422V120.782H399.864ZM392.668 115.476C392.621 116.857 392.509 118.001 392.332 118.906C392.164 119.811 391.889 120.437 391.506 120.782H397.036V113.418H392.738L392.668 115.476ZM401.554 114.58H402.898V117.73H407.126V114.58H408.47V122H407.126V118.892H402.898V122H401.554V114.58ZM417.789 118.332C417.789 118.435 417.78 118.57 417.761 118.738H411.741C411.825 119.391 412.11 119.919 412.595 120.32C413.09 120.712 413.701 120.908 414.429 120.908C415.316 120.908 416.03 120.609 416.571 120.012L417.313 120.88C416.977 121.272 416.557 121.571 416.053 121.776C415.559 121.981 415.003 122.084 414.387 122.084C413.603 122.084 412.908 121.925 412.301 121.608C411.695 121.281 411.223 120.829 410.887 120.25C410.561 119.671 410.397 119.018 410.397 118.29C410.397 117.571 410.556 116.923 410.873 116.344C411.2 115.765 411.643 115.317 412.203 115C412.773 114.673 413.412 114.51 414.121 114.51C414.831 114.51 415.461 114.673 416.011 115C416.571 115.317 417.005 115.765 417.313 116.344C417.631 116.923 417.789 117.585 417.789 118.332ZM414.121 115.644C413.477 115.644 412.936 115.84 412.497 116.232C412.068 116.624 411.816 117.137 411.741 117.772H416.501C416.427 117.147 416.17 116.638 415.731 116.246C415.302 115.845 414.765 115.644 414.121 115.644ZM419.874 114.58H421.218V119.984L425.768 114.58H426.986V122H425.642V116.596L421.106 122H419.874V114.58ZM423.346 113.614C422.656 113.614 422.119 113.451 421.736 113.124C421.354 112.788 421.158 112.307 421.148 111.682H422.058C422.068 112.027 422.184 112.307 422.408 112.522C422.642 112.727 422.95 112.83 423.332 112.83C423.715 112.83 424.023 112.727 424.256 112.522C424.49 112.307 424.611 112.027 424.62 111.682H425.558C425.549 112.307 425.348 112.788 424.956 113.124C424.564 113.451 424.028 113.614 423.346 113.614Z" fill="white"/>
	<path d="M50.3133 85V70L48.3633 71.77L46.2633 69.37L51.0033 65.23H53.9133V85H50.3133ZM62.2048 85.33C60.5448 85.33 59.2548 84.85 58.3348 83.89C57.4348 82.91 56.9848 81.54 56.9848 79.78V70.33C56.9848 68.55 57.4348 67.18 58.3348 66.22C59.2548 65.26 60.5448 64.78 62.2048 64.78C63.8648 64.78 65.1448 65.26 66.0448 66.22C66.9648 67.18 67.4248 68.55 67.4248 70.33V79.78C67.4248 81.54 66.9648 82.91 66.0448 83.89C65.1448 84.85 63.8648 85.33 62.2048 85.33ZM62.2048 67.93C61.6848 67.93 61.2848 68.14 61.0048 68.56C60.7248 68.98 60.5848 69.57 60.5848 70.33V79.78C60.5848 80.54 60.7248 81.13 61.0048 81.55C61.2848 81.97 61.6848 82.18 62.2048 82.18C62.7248 82.18 63.1248 81.97 63.4048 81.55C63.6848 81.13 63.8248 80.54 63.8248 79.78V70.33C63.8248 69.57 63.6848 68.98 63.4048 68.56C63.1248 68.14 62.7248 67.93 62.2048 67.93ZM80.0173 85.33C78.3573 85.33 77.0673 84.85 76.1473 83.89C75.2473 82.91 74.7973 81.54 74.7973 79.78V70.33C74.7973 68.55 75.2473 67.18 76.1473 66.22C77.0673 65.26 78.3573 64.78 80.0173 64.78C81.6773 64.78 82.9573 65.26 83.8573 66.22C84.7773 67.18 85.2373 68.55 85.2373 70.33V79.78C85.2373 81.54 84.7773 82.91 83.8573 83.89C82.9573 84.85 81.6773 85.33 80.0173 85.33ZM80.0173 67.93C79.4973 67.93 79.0973 68.14 78.8173 68.56C78.5373 68.98 78.3973 69.57 78.3973 70.33V79.78C78.3973 80.54 78.5373 81.13 78.8173 81.55C79.0973 81.97 79.4973 82.18 80.0173 82.18C80.5373 82.18 80.9373 81.97 81.2173 81.55C81.4973 81.13 81.6373 80.54 81.6373 79.78V70.33C81.6373 69.57 81.4973 68.98 81.2173 68.56C80.9373 68.14 80.5373 67.93 80.0173 67.93ZM93.1716 85.33C91.5116 85.33 90.2216 84.85 89.3016 83.89C88.4016 82.91 87.9516 81.54 87.9516 79.78V70.33C87.9516 68.55 88.4016 67.18 89.3016 66.22C90.2216 65.26 91.5116 64.78 93.1716 64.78C94.8316 64.78 96.1116 65.26 97.0116 66.22C97.9316 67.18 98.3916 68.55 98.3916 70.33V79.78C98.3916 81.54 97.9316 82.91 97.0116 83.89C96.1116 84.85 94.8316 85.33 93.1716 85.33ZM93.1716 67.93C92.6516 67.93 92.2516 68.14 91.9716 68.56C91.6916 68.98 91.5516 69.57 91.5516 70.33V79.78C91.5516 80.54 91.6916 81.13 91.9716 81.55C92.2516 81.97 92.6516 82.18 93.1716 82.18C93.6916 82.18 94.0916 81.97 94.3716 81.55C94.6516 81.13 94.7916 80.54 94.7916 79.78V70.33C94.7916 69.57 94.6516 68.98 94.3716 68.56C94.0916 68.14 93.6916 67.93 93.1716 67.93ZM106.326 85.33C104.666 85.33 103.376 84.85 102.456 83.89C101.556 82.91 101.106 81.54 101.106 79.78V70.33C101.106 68.55 101.556 67.18 102.456 66.22C103.376 65.26 104.666 64.78 106.326 64.78C107.986 64.78 109.266 65.26 110.166 66.22C111.086 67.18 111.546 68.55 111.546 70.33V79.78C111.546 81.54 111.086 82.91 110.166 83.89C109.266 84.85 107.986 85.33 106.326 85.33ZM106.326 67.93C105.806 67.93 105.406 68.14 105.126 68.56C104.846 68.98 104.706 69.57 104.706 70.33V79.78C104.706 80.54 104.846 81.13 105.126 81.55C105.406 81.97 105.806 82.18 106.326 82.18C106.846 82.18 107.246 81.97 107.526 81.55C107.806 81.13 107.946 80.54 107.946 79.78V70.33C107.946 69.57 107.806 68.98 107.526 68.56C107.246 68.14 106.846 67.93 106.326 67.93ZM117.11 85H114.278V68.992H117.11V75.688H118.118L121.142 68.992H124.142L120.326 76.84L124.142 85H121.022L117.998 78.208H117.11V85ZM128.76 71.464V85H125.88V68.992H133.416V71.464H128.76Z" fill="white"/>
	<path d="M65.3713 97.2V107H63.9993V98.418H58.3153V107H56.9293V97.2H65.3713ZM72.1374 99.51C72.856 99.51 73.5 99.6687 74.0694 99.986C74.6387 100.303 75.082 100.747 75.3994 101.316C75.726 101.885 75.8894 102.543 75.8894 103.29C75.8894 104.037 75.726 104.699 75.3994 105.278C75.082 105.847 74.6387 106.291 74.0694 106.608C73.5 106.925 72.856 107.084 72.1374 107.084C71.6054 107.084 71.1154 106.981 70.6674 106.776C70.2287 106.571 69.8554 106.272 69.5474 105.88V109.716H68.2034V99.58H69.4914V100.756C69.79 100.345 70.168 100.037 70.6254 99.832C71.0827 99.6173 71.5867 99.51 72.1374 99.51ZM72.0254 105.908C72.5014 105.908 72.926 105.801 73.2994 105.586C73.682 105.362 73.9807 105.054 74.1954 104.662C74.4194 104.261 74.5314 103.803 74.5314 103.29C74.5314 102.777 74.4194 102.324 74.1954 101.932C73.9807 101.531 73.682 101.223 73.2994 101.008C72.926 100.793 72.5014 100.686 72.0254 100.686C71.5587 100.686 71.134 100.798 70.7514 101.022C70.378 101.237 70.0794 101.54 69.8554 101.932C69.6407 102.324 69.5334 102.777 69.5334 103.29C69.5334 103.803 69.6407 104.261 69.8554 104.662C70.07 105.054 70.3687 105.362 70.7514 105.586C71.134 105.801 71.5587 105.908 72.0254 105.908ZM81.02 107.084C80.2827 107.084 79.62 106.921 79.032 106.594C78.444 106.267 77.982 105.819 77.646 105.25C77.3194 104.671 77.156 104.018 77.156 103.29C77.156 102.562 77.3194 101.913 77.646 101.344C77.982 100.765 78.444 100.317 79.032 100C79.62 99.6733 80.2827 99.51 81.02 99.51C81.7574 99.51 82.4154 99.6733 82.994 100C83.582 100.317 84.0394 100.765 84.366 101.344C84.702 101.913 84.87 102.562 84.87 103.29C84.87 104.018 84.702 104.671 84.366 105.25C84.0394 105.819 83.582 106.267 82.994 106.594C82.4154 106.921 81.7574 107.084 81.02 107.084ZM81.02 105.908C81.496 105.908 81.9207 105.801 82.294 105.586C82.6767 105.362 82.9754 105.054 83.19 104.662C83.4047 104.261 83.512 103.803 83.512 103.29C83.512 102.777 83.4047 102.324 83.19 101.932C82.9754 101.531 82.6767 101.223 82.294 101.008C81.9207 100.793 81.496 100.686 81.02 100.686C80.544 100.686 80.1147 100.793 79.732 101.008C79.3587 101.223 79.06 101.531 78.836 101.932C78.6214 102.324 78.514 102.777 78.514 103.29C78.514 103.803 78.6214 104.261 78.836 104.662C79.06 105.054 79.3587 105.362 79.732 105.586C80.1147 105.801 80.544 105.908 81.02 105.908ZM94.3021 105.824V108.722H93.0421V107H86.8401V108.722H85.5661V105.824H85.9581C86.4341 105.796 86.7608 105.46 86.9381 104.816C87.1154 104.172 87.2368 103.262 87.3021 102.086L87.4141 99.58H93.1681V105.824H94.3021ZM88.5341 102.184C88.4968 103.117 88.4174 103.892 88.2961 104.508C88.1841 105.115 87.9741 105.553 87.6661 105.824H91.8241V100.756H88.6041L88.5341 102.184ZM98.699 99.51C99.7256 99.51 100.51 99.762 101.051 100.266C101.602 100.77 101.877 101.521 101.877 102.52V107H100.603V106.02C100.379 106.365 100.057 106.631 99.637 106.818C99.2263 106.995 98.7363 107.084 98.167 107.084C97.3363 107.084 96.669 106.883 96.165 106.482C95.6703 106.081 95.423 105.553 95.423 104.9C95.423 104.247 95.661 103.724 96.137 103.332C96.613 102.931 97.369 102.73 98.405 102.73H100.533V102.464C100.533 101.885 100.365 101.442 100.029 101.134C99.693 100.826 99.1983 100.672 98.545 100.672C98.1063 100.672 97.677 100.747 97.257 100.896C96.837 101.036 96.4823 101.227 96.193 101.47L95.633 100.462C96.0156 100.154 96.473 99.9207 97.005 99.762C97.537 99.594 98.1016 99.51 98.699 99.51ZM98.391 106.048C98.9043 106.048 99.3476 105.936 99.721 105.712C100.094 105.479 100.365 105.152 100.533 104.732V103.696H98.461C97.3223 103.696 96.753 104.079 96.753 104.844C96.753 105.217 96.8976 105.511 97.187 105.726C97.4763 105.941 97.8776 106.048 98.391 106.048ZM111.045 103.864H109.603V107H108.259V103.864H106.817L104.773 107H103.177L105.725 103.164L103.373 99.58H104.801L106.803 102.716H108.259V99.58H109.603V102.716H111.059L113.061 99.58H114.503L112.151 103.178L114.699 107H113.103L111.045 103.864ZM116.178 99.58H117.522V104.984L122.072 99.58H123.29V107H121.946V101.596L117.41 107H116.178V99.58Z" fill="white"/>
	<defs>
		<filter id="filter0_i_408_14094" x="-1" y="30" width="486" height="161.5" filterUnits="userSpaceOnUse" color-interpolation-filters="sRGB">
			<feFlood flood-opacity="0" result="BackgroundImageFix"/>
			<feBlend mode="normal" in="SourceGraphic" in2="BackgroundImageFix" result="shape"/>
			<feColorMatrix in="SourceAlpha" type="matrix" values="0 0 0 0 0 0 0 0 0 0 0 0 0 0 0 0 0 0 127 0" result="hardAlpha"/>
			<feOffset dx="-1" dy="4"/>
			<feGaussianBlur stdDeviation="4"/>
			<feComposite in2="hardAlpha" operator="arithmetic" k2="-1" k3="1"/>
			<feColorMatrix type="matrix" values="0 0 0 0 0 0 0 0 0 0 0 0 0 0 0 0 0 0 0.25 0"/>
			<feBlend mode="normal" in2="shape" result="effect1_innerShadow_408_14094"/>
		</filter>
	</defs>
</svg>
