<svg width="485" height="189" viewBox="0 0 485 189" fill="none" xmlns="http://www.w3.org/2000/svg">
	<g filter="url(#filter0_i_161_6891)">
		<path fill-rule="evenodd" clip-rule="evenodd" d="M6.53368 48.7823C10.5544 43.1935 15.0777 42.1774 33.171 39.129C51.2642 36.0806 116.601 31 141.731 31H240.238H244.762H343.269C368.399 31 433.736 36.0806 451.829 39.129C469.922 42.1774 474.446 43.1935 478.466 48.7823C482.487 54.371 482.99 65.0403 482.99 77.2339C482.99 89.4274 485 187.992 485 187.992L244.762 188.491V188.5L242.5 188.495L240.238 188.5V188.491L0 187.992C0 187.992 2.01036 89.4274 2.01036 77.2339C2.01036 65.0403 2.51295 54.371 6.53368 48.7823Z" fill="#004798"/>
	</g>
	<path d="M242.5 185C293.586 185 335 143.808 335 92.9946C335 42.1815 293.586 0.989258 242.5 0.989258C191.414 0.989258 150 42.1815 150 92.9946C150 143.808 191.414 185 242.5 185Z" fill="#004798"/>
	<path d="M219.531 161.406V151.606H226.923V152.796H220.917V155.596H223.969C225.135 155.596 226.022 155.839 226.629 156.324C227.235 156.81 227.539 157.514 227.539 158.438C227.539 159.39 227.207 160.123 226.545 160.636C225.891 161.15 224.953 161.406 223.731 161.406H219.531ZM220.917 160.3H223.675C224.487 160.3 225.098 160.146 225.509 159.838C225.929 159.53 226.139 159.073 226.139 158.466C226.139 157.29 225.317 156.702 223.675 156.702H220.917V160.3ZM234.097 161.406V159.838L234.027 159.544V156.87C234.027 156.301 233.859 155.862 233.523 155.554C233.196 155.237 232.702 155.078 232.039 155.078C231.6 155.078 231.171 155.153 230.751 155.302C230.331 155.442 229.976 155.634 229.687 155.876L229.127 154.868C229.51 154.56 229.967 154.327 230.499 154.168C231.04 154 231.605 153.916 232.193 153.916C233.21 153.916 233.994 154.164 234.545 154.658C235.096 155.153 235.371 155.909 235.371 156.926V161.406H234.097ZM231.661 161.49C231.11 161.49 230.625 161.397 230.205 161.21C229.794 161.024 229.477 160.767 229.253 160.44C229.029 160.104 228.917 159.726 228.917 159.306C228.917 158.905 229.01 158.541 229.197 158.214C229.393 157.888 229.706 157.626 230.135 157.43C230.574 157.234 231.162 157.136 231.899 157.136H234.251V158.102H231.955C231.283 158.102 230.83 158.214 230.597 158.438C230.364 158.662 230.247 158.933 230.247 159.25C230.247 159.614 230.392 159.908 230.681 160.132C230.97 160.347 231.372 160.454 231.885 160.454C232.389 160.454 232.828 160.342 233.201 160.118C233.584 159.894 233.859 159.568 234.027 159.138L234.293 160.062C234.116 160.501 233.803 160.851 233.355 161.112C232.907 161.364 232.342 161.49 231.661 161.49ZM236.559 161.392L236.643 160.258C236.708 160.268 236.769 160.277 236.825 160.286C236.881 160.296 236.932 160.3 236.979 160.3C237.278 160.3 237.511 160.198 237.679 159.992C237.856 159.787 237.987 159.516 238.071 159.18C238.155 158.835 238.216 158.448 238.253 158.018C238.29 157.589 238.318 157.16 238.337 156.73L238.463 153.986H244.161V161.406H242.817V154.77L243.139 155.162H239.331L239.639 154.756L239.541 156.814C239.513 157.468 239.462 158.079 239.387 158.648C239.312 159.218 239.196 159.717 239.037 160.146C238.888 160.576 238.678 160.912 238.407 161.154C238.146 161.397 237.805 161.518 237.385 161.518C237.264 161.518 237.133 161.504 236.993 161.476C236.862 161.458 236.718 161.43 236.559 161.392ZM245.528 161.392L245.612 160.258C245.677 160.268 245.738 160.277 245.794 160.286C245.85 160.296 245.901 160.3 245.948 160.3C246.246 160.3 246.48 160.198 246.648 159.992C246.825 159.787 246.956 159.516 247.04 159.18C247.124 158.835 247.184 158.448 247.222 158.018C247.259 157.589 247.287 157.16 247.306 156.73L247.432 153.986H253.13V161.406H251.786V154.77L252.108 155.162H248.3L248.608 154.756L248.51 156.814C248.482 157.468 248.43 158.079 248.356 158.648C248.281 159.218 248.164 159.717 248.006 160.146C247.856 160.576 247.646 160.912 247.376 161.154C247.114 161.397 246.774 161.518 246.354 161.518C246.232 161.518 246.102 161.504 245.962 161.476C245.831 161.458 245.686 161.43 245.528 161.392ZM263.065 161.406V153.986H264.409V161.406H263.065ZM259.075 156.506C260.017 156.516 260.731 156.73 261.217 157.15C261.711 157.57 261.959 158.163 261.959 158.928C261.959 159.731 261.688 160.352 261.147 160.79C260.615 161.22 259.849 161.43 258.851 161.42L255.729 161.406V153.986H257.073V156.492L259.075 156.506ZM258.753 160.398C259.35 160.408 259.807 160.286 260.125 160.034C260.442 159.782 260.601 159.409 260.601 158.914C260.601 158.429 260.442 158.074 260.125 157.85C259.817 157.626 259.359 157.51 258.753 157.5L257.073 157.472V160.384L258.753 160.398Z" fill="white"/>
	<path d="M242.995 26.7112V0" stroke="white" stroke-width="0.5032" stroke-miterlimit="10"/>
	<path d="M237.059 19.786L236.069 0.989258" stroke="white" stroke-width="0.5032" stroke-miterlimit="10"/>
	<path d="M232.112 19.786L230.134 0.989258" stroke="white" stroke-width="0.5032" stroke-miterlimit="10"/>
	<path d="M227.166 20.7753L223.208 2.96777" stroke="white" stroke-width="0.5032" stroke-miterlimit="10"/>
	<path d="M222.219 22.7541L217.273 3.95728" stroke="white" stroke-width="0.5032" stroke-miterlimit="10"/>
	<path d="M220.241 30.6687L211.337 5.93604" stroke="white" stroke-width="0.5032" stroke-miterlimit="10"/>
	<path d="M212.326 25.7217L205.401 8.90356" stroke="white" stroke-width="0.5032" stroke-miterlimit="10"/>
	<path d="M208.369 27.7005L199.465 10.8823" stroke="white" stroke-width="0.5032" stroke-miterlimit="10"/>
	<path d="M203.422 30.6685L193.529 14.8396" stroke="white" stroke-width="0.5032" stroke-miterlimit="10"/>
	<path d="M199.465 33.6365L188.583 17.8076" stroke="white" stroke-width="0.5032" stroke-miterlimit="10"/>
	<path d="M200.455 42.54L183.636 21.7646" stroke="white" stroke-width="0.5032" stroke-miterlimit="10"/>
	<path d="M306.31 159.278L288.503 140.481" stroke="white" stroke-width="0.5032" stroke-miterlimit="10"/>
	<path d="M191.551 40.5614L178.69 26.7112" stroke="white" stroke-width="0.5032" stroke-miterlimit="10"/>
	<path d="M311.257 154.331L297.406 141.47" stroke="white" stroke-width="0.5032" stroke-miterlimit="10"/>
	<path d="M188.583 43.5297L173.743 30.6687" stroke="white" stroke-width="0.5032" stroke-miterlimit="10"/>
	<path d="M315.214 149.385L300.374 137.513" stroke="white" stroke-width="0.5032" stroke-miterlimit="10"/>
	<path d="M184.626 47.4864L169.786 35.6147" stroke="white" stroke-width="0.5032" stroke-miterlimit="10"/>
	<path d="M319.171 144.439L303.342 133.556" stroke="white" stroke-width="0.5032" stroke-miterlimit="10"/>
	<path d="M181.658 51.4438L165.829 41.5508" stroke="white" stroke-width="0.5032" stroke-miterlimit="10"/>
	<path d="M323.128 138.502L306.31 129.599" stroke="white" stroke-width="0.5032" stroke-miterlimit="10"/>
	<path d="M185.615 59.3583L162.861 46.4973" stroke="white" stroke-width="0.5032" stroke-miterlimit="10"/>
	<path d="M326.096 133.556L302.353 121.684" stroke="white" stroke-width="0.5032" stroke-miterlimit="10"/>
	<path d="M176.711 60.3475L159.893 52.4331" stroke="white" stroke-width="0.5032" stroke-miterlimit="10"/>
	<path d="M328.075 127.62L310.267 120.695" stroke="white" stroke-width="0.5032" stroke-miterlimit="10"/>
	<path d="M174.733 65.2943L156.925 58.3691" stroke="white" stroke-width="0.5032" stroke-miterlimit="10"/>
	<path d="M330.053 121.685L312.246 115.749" stroke="white" stroke-width="0.5032" stroke-miterlimit="10"/>
	<path d="M172.754 70.2408L154.946 64.3049" stroke="white" stroke-width="0.5032" stroke-miterlimit="10"/>
	<path d="M332.032 114.759L314.225 110.802" stroke="white" stroke-width="0.5032" stroke-miterlimit="10"/>
	<path d="M171.765 75.1872L152.968 70.2407" stroke="white" stroke-width="0.5032" stroke-miterlimit="10"/>
	<path d="M334.011 108.824L315.214 105.856" stroke="white" stroke-width="0.5032" stroke-miterlimit="10"/>
	<path d="M177.701 81.123L151.979 77.1658" stroke="white" stroke-width="0.5032" stroke-miterlimit="10"/>
	<path d="M334.011 102.888L308.289 99.9197" stroke="white" stroke-width="0.5032" stroke-miterlimit="10"/>
	<path d="M169.786 85.0804L150.989 83.1018" stroke="white" stroke-width="0.5032" stroke-miterlimit="10"/>
	<path d="M335 95.9624L316.203 94.9731" stroke="white" stroke-width="0.5032" stroke-miterlimit="10"/>
	<path d="M168.797 90.0269H150" stroke="white" stroke-width="0.5032" stroke-miterlimit="10"/>
	<path d="M335 90.0269H316.203" stroke="white" stroke-width="0.5032" stroke-miterlimit="10"/>
	<path d="M168.797 94.9731L150 95.9624" stroke="white" stroke-width="0.5032" stroke-miterlimit="10"/>
	<path d="M334.011 83.1018L315.214 85.0804" stroke="white" stroke-width="0.5032" stroke-miterlimit="10"/>
	<path d="M169.786 100.909L150.989 102.888" stroke="white" stroke-width="0.5032" stroke-miterlimit="10"/>
	<path d="M334.011 77.1658L315.214 80.1337" stroke="white" stroke-width="0.5032" stroke-miterlimit="10"/>
	<path d="M177.701 103.877L151.979 108.823" stroke="white" stroke-width="0.5032" stroke-miterlimit="10"/>
	<path d="M332.032 70.2407L307.299 77.1659" stroke="white" stroke-width="0.5032" stroke-miterlimit="10"/>
	<path d="M171.765 110.802L152.968 114.759" stroke="white" stroke-width="0.5032" stroke-miterlimit="10"/>
	<path d="M330.053 64.3049L312.246 70.2408" stroke="white" stroke-width="0.5032" stroke-miterlimit="10"/>
	<path d="M172.754 115.749L154.946 121.685" stroke="white" stroke-width="0.5032" stroke-miterlimit="10"/>
	<path d="M328.075 58.3691L310.267 65.2943" stroke="white" stroke-width="0.5032" stroke-miterlimit="10"/>
	<path d="M174.733 120.695L156.925 127.62" stroke="white" stroke-width="0.5032" stroke-miterlimit="10"/>
	<path d="M326.096 52.4331L308.289 60.3475" stroke="white" stroke-width="0.5032" stroke-miterlimit="10"/>
	<path d="M176.711 124.653L159.893 133.556" stroke="white" stroke-width="0.5032" stroke-miterlimit="10"/>
	<path d="M323.128 46.4973L306.31 56.3904" stroke="white" stroke-width="0.5032" stroke-miterlimit="10"/>
	<path d="M185.615 125.642L162.861 138.503" stroke="white" stroke-width="0.5032" stroke-miterlimit="10"/>
	<path d="M319.171 41.5508L297.406 55.401" stroke="white" stroke-width="0.5032" stroke-miterlimit="10"/>
	<path d="M181.658 133.556L165.829 144.439" stroke="white" stroke-width="0.5032" stroke-miterlimit="10"/>
	<path d="M315.214 35.6147L300.374 47.4864" stroke="white" stroke-width="0.5032" stroke-miterlimit="10"/>
	<path d="M184.626 137.513L169.786 149.385" stroke="white" stroke-width="0.5032" stroke-miterlimit="10"/>
	<path d="M311.257 30.6687L297.406 43.5297" stroke="white" stroke-width="0.5032" stroke-miterlimit="10"/>
	<path d="M188.583 141.47L173.743 154.331" stroke="white" stroke-width="0.5032" stroke-miterlimit="10"/>
	<path d="M306.31 26.7112L293.449 40.5614" stroke="white" stroke-width="0.5032" stroke-miterlimit="10"/>
	<path d="M191.551 145.428L178.69 159.278" stroke="white" stroke-width="0.5032" stroke-miterlimit="10"/>
	<path d="M302.353 21.7646L289.492 36.6042" stroke="white" stroke-width="0.5032" stroke-miterlimit="10"/>
	<path d="M200.455 143.449L183.636 163.235" stroke="white" stroke-width="0.5032" stroke-miterlimit="10"/>
	<path d="M297.406 17.8076L281.578 39.5723" stroke="white" stroke-width="0.5032" stroke-miterlimit="10"/>
	<path d="M291.471 14.8396L281.578 30.6685" stroke="white" stroke-width="0.5032" stroke-miterlimit="10"/>
	<path d="M286.524 10.8823L276.631 27.7005" stroke="white" stroke-width="0.5032" stroke-miterlimit="10"/>
	<path d="M280.588 8.90356L272.674 25.7217" stroke="white" stroke-width="0.5032" stroke-miterlimit="10"/>
	<path d="M274.652 5.93604L265.749 30.6687" stroke="white" stroke-width="0.5032" stroke-miterlimit="10"/>
	<path d="M267.727 3.95728L262.781 22.7541" stroke="white" stroke-width="0.5032" stroke-miterlimit="10"/>
	<path d="M261.792 2.96777L257.834 20.7753" stroke="white" stroke-width="0.5032" stroke-miterlimit="10"/>
	<path d="M255.855 0.989258L252.888 19.786" stroke="white" stroke-width="0.5032" stroke-miterlimit="10"/>
	<path d="M248.93 0.989258L247.941 19.786" stroke="white" stroke-width="0.5032" stroke-miterlimit="10"/>
	<path d="M194.433 88.251V84.379C194.433 82.0324 195.093 80.1844 196.413 78.835C197.733 77.4857 199.551 76.811 201.869 76.811C204.245 76.811 206.093 77.4857 207.413 78.835C208.733 80.1844 209.393 82.0324 209.393 84.379V99.427C209.393 101.803 208.747 103.651 207.457 104.971C206.166 106.291 204.347 106.951 202.001 106.951C199.742 106.951 197.953 106.291 196.633 104.971C195.342 103.651 194.697 101.803 194.697 99.427V98.591H199.757V99.339C199.757 101.48 200.505 102.551 202.001 102.551C203.497 102.551 204.245 101.48 204.245 99.339V94.015C203.394 95.1884 202.147 95.775 200.505 95.775C198.627 95.775 197.146 95.115 196.061 93.795C194.975 92.4457 194.433 90.5977 194.433 88.251ZM199.493 88.251C199.493 89.219 199.698 89.9817 200.109 90.539C200.549 91.0964 201.135 91.375 201.869 91.375C202.397 91.375 202.837 91.2724 203.189 91.067C203.57 90.8324 203.922 90.5097 204.245 90.099V84.159C204.245 83.2497 204.025 82.531 203.585 82.003C203.174 81.475 202.602 81.211 201.869 81.211C201.135 81.211 200.549 81.475 200.109 82.003C199.698 82.531 199.493 83.2497 199.493 84.159V88.251ZM212.909 88.251V84.379C212.909 82.0324 213.569 80.1844 214.889 78.835C216.209 77.4857 218.028 76.811 220.345 76.811C222.721 76.811 224.569 77.4857 225.889 78.835C227.209 80.1844 227.869 82.0324 227.869 84.379V99.427C227.869 101.803 227.224 103.651 225.933 104.971C224.642 106.291 222.824 106.951 220.477 106.951C218.218 106.951 216.429 106.291 215.109 104.971C213.818 103.651 213.173 101.803 213.173 99.427V98.591H218.233V99.339C218.233 101.48 218.981 102.551 220.477 102.551C221.973 102.551 222.721 101.48 222.721 99.339V94.015C221.87 95.1884 220.624 95.775 218.981 95.775C217.104 95.775 215.622 95.115 214.537 93.795C213.452 92.4457 212.909 90.5977 212.909 88.251ZM217.969 88.251C217.969 89.219 218.174 89.9817 218.585 90.539C219.025 91.0964 219.612 91.375 220.345 91.375C220.873 91.375 221.313 91.2724 221.665 91.067C222.046 90.8324 222.398 90.5097 222.721 90.099V84.159C222.721 83.2497 222.501 82.531 222.061 82.003C221.65 81.475 221.078 81.211 220.345 81.211C219.612 81.211 219.025 81.475 218.585 82.003C218.174 82.531 217.969 83.2497 217.969 84.159V88.251ZM238.218 88.251V84.379C238.218 82.0324 238.878 80.1844 240.198 78.835C241.518 77.4857 243.336 76.811 245.654 76.811C248.03 76.811 249.878 77.4857 251.198 78.835C252.518 80.1844 253.178 82.0324 253.178 84.379V99.427C253.178 101.803 252.532 103.651 251.242 104.971C249.951 106.291 248.132 106.951 245.786 106.951C243.527 106.951 241.738 106.291 240.418 104.971C239.127 103.651 238.482 101.803 238.482 99.427V98.591H243.542V99.339C243.542 101.48 244.29 102.551 245.786 102.551C247.282 102.551 248.03 101.48 248.03 99.339V94.015C247.179 95.1884 245.932 95.775 244.29 95.775C242.412 95.775 240.931 95.115 239.846 93.795C238.76 92.4457 238.218 90.5977 238.218 88.251ZM243.278 88.251C243.278 89.219 243.483 89.9817 243.894 90.539C244.334 91.0964 244.92 91.375 245.654 91.375C246.182 91.375 246.622 91.2724 246.974 91.067C247.355 90.8324 247.707 90.5097 248.03 90.099V84.159C248.03 83.2497 247.81 82.531 247.37 82.003C246.959 81.475 246.387 81.211 245.654 81.211C244.92 81.211 244.334 81.475 243.894 82.003C243.483 82.531 243.278 83.2497 243.278 84.159V88.251ZM256.694 88.251V84.379C256.694 82.0324 257.354 80.1844 258.674 78.835C259.994 77.4857 261.813 76.811 264.13 76.811C266.506 76.811 268.354 77.4857 269.674 78.835C270.994 80.1844 271.654 82.0324 271.654 84.379V99.427C271.654 101.803 271.009 103.651 269.718 104.971C268.428 106.291 266.609 106.951 264.262 106.951C262.004 106.951 260.214 106.291 258.894 104.971C257.604 103.651 256.958 101.803 256.958 99.427V98.591H262.018V99.339C262.018 101.48 262.766 102.551 264.262 102.551C265.758 102.551 266.506 101.48 266.506 99.339V94.015C265.656 95.1884 264.409 95.775 262.766 95.775C260.889 95.775 259.408 95.115 258.322 93.795C257.237 92.4457 256.694 90.5977 256.694 88.251ZM261.754 88.251C261.754 89.219 261.96 89.9817 262.37 90.539C262.81 91.0964 263.397 91.375 264.13 91.375C264.658 91.375 265.098 91.2724 265.45 91.067C265.832 90.8324 266.184 90.5097 266.506 90.099V84.159C266.506 83.2497 266.286 82.531 265.846 82.003C265.436 81.475 264.864 81.211 264.13 81.211C263.397 81.211 262.81 81.475 262.37 82.003C261.96 82.531 261.754 83.2497 261.754 84.159V88.251ZM275.171 88.251V84.379C275.171 82.0324 275.831 80.1844 277.151 78.835C278.471 77.4857 280.29 76.811 282.607 76.811C284.983 76.811 286.831 77.4857 288.151 78.835C289.471 80.1844 290.131 82.0324 290.131 84.379V99.427C290.131 101.803 289.486 103.651 288.195 104.971C286.904 106.291 285.086 106.951 282.739 106.951C280.48 106.951 278.691 106.291 277.371 104.971C276.08 103.651 275.435 101.803 275.435 99.427V98.591H280.495V99.339C280.495 101.48 281.243 102.551 282.739 102.551C284.235 102.551 284.983 101.48 284.983 99.339V94.015C284.132 95.1884 282.886 95.775 281.243 95.775C279.366 95.775 277.884 95.115 276.799 93.795C275.714 92.4457 275.171 90.5977 275.171 88.251ZM280.231 88.251C280.231 89.219 280.436 89.9817 280.847 90.539C281.287 91.0964 281.874 91.375 282.607 91.375C283.135 91.375 283.575 91.2724 283.927 91.067C284.308 90.8324 284.66 90.5097 284.983 90.099V84.159C284.983 83.2497 284.763 82.531 284.323 82.003C283.912 81.475 283.34 81.211 282.607 81.211C281.874 81.211 281.287 81.475 280.847 82.003C280.436 82.531 280.231 83.2497 280.231 84.159V88.251Z" fill="white"/>
	<path d="M79.7131 144V141.81L84.5731 133.47C85.0731 132.61 85.4531 131.87 85.7131 131.25C85.9931 130.61 86.1331 129.99 86.1331 129.39V128.67C86.1331 128.09 85.9931 127.64 85.7131 127.32C85.4531 127 85.1031 126.84 84.6631 126.84C84.2031 126.84 83.8331 127.01 83.5531 127.35C83.2931 127.69 83.1631 128.15 83.1631 128.73V130.11H79.7131V128.79C79.7131 127.23 80.1531 126.01 81.0331 125.13C81.9131 124.23 83.1031 123.78 84.6031 123.78C86.1631 123.78 87.3931 124.22 88.2931 125.1C89.2131 125.98 89.6731 127.19 89.6731 128.73V129.39C89.6731 130.27 89.4831 131.12 89.1031 131.94C88.7431 132.74 88.2531 133.66 87.6331 134.7L84.0031 140.82H89.8231L89.1631 144H79.7131ZM97.1787 131.13C98.4787 131.13 99.4987 131.59 100.239 132.51C100.999 133.41 101.379 134.66 101.379 136.26V139.2C101.379 140.8 100.909 142.06 99.9687 142.98C99.0287 143.88 97.7487 144.33 96.1287 144.33C94.5487 144.33 93.3487 143.88 92.5287 142.98C91.7287 142.06 91.3287 140.8 91.3287 139.2V138.72H94.7787V139.2C94.7787 139.84 94.8987 140.35 95.1387 140.73C95.3787 141.09 95.7587 141.27 96.2787 141.27C96.7987 141.27 97.1787 141.09 97.4187 140.73C97.6587 140.35 97.7787 139.84 97.7787 139.2V136.26C97.7787 135.6 97.6187 135.08 97.2987 134.7C96.9987 134.32 96.5787 134.13 96.0387 134.13C95.5987 134.13 95.1987 134.26 94.8387 134.52C94.4987 134.76 94.2587 135.11 94.1187 135.57H91.7787V124.23H100.569V127.32H95.0187V131.82C95.2987 131.62 95.6087 131.46 95.9487 131.34C96.3087 131.2 96.7187 131.13 97.1787 131.13Z" fill="white"/>
	<path d="M57.548 156.2L53.194 164.278C52.8487 164.922 52.4427 165.403 51.976 165.72C51.5093 166.037 51.0007 166.196 50.45 166.196C50.0207 166.196 49.582 166.098 49.134 165.902L49.498 164.782C49.8433 164.903 50.1513 164.964 50.422 164.964C51.038 164.964 51.5467 164.637 51.948 163.984L52.172 163.634L48.224 156.2H49.722L52.9 162.416L56.162 156.2H57.548ZM64.4525 158.58V166H63.1085V163.004C62.3058 163.377 61.5078 163.564 60.7145 163.564C59.7905 163.564 59.0765 163.349 58.5725 162.92C58.0685 162.491 57.8165 161.847 57.8165 160.988V158.58H59.1605V160.904C59.1605 161.417 59.3192 161.805 59.6365 162.066C59.9632 162.327 60.4158 162.458 60.9945 162.458C61.6478 162.458 62.3525 162.295 63.1085 161.968V158.58H64.4525ZM69.7078 158.51C70.7344 158.51 71.5184 158.762 72.0598 159.266C72.6104 159.77 72.8858 160.521 72.8858 161.52V166H71.6118V165.02C71.3878 165.365 71.0658 165.631 70.6458 165.818C70.2351 165.995 69.7451 166.084 69.1758 166.084C68.3451 166.084 67.6778 165.883 67.1738 165.482C66.6791 165.081 66.4318 164.553 66.4318 163.9C66.4318 163.247 66.6698 162.724 67.1458 162.332C67.6218 161.931 68.3778 161.73 69.4138 161.73H71.5418V161.464C71.5418 160.885 71.3738 160.442 71.0378 160.134C70.7018 159.826 70.2071 159.672 69.5538 159.672C69.1151 159.672 68.6858 159.747 68.2658 159.896C67.8458 160.036 67.4911 160.227 67.2018 160.47L66.6418 159.462C67.0244 159.154 67.4818 158.921 68.0138 158.762C68.5458 158.594 69.1104 158.51 69.7078 158.51ZM69.3998 165.048C69.9131 165.048 70.3564 164.936 70.7298 164.712C71.1031 164.479 71.3738 164.152 71.5418 163.732V162.696H69.4698C68.3311 162.696 67.7618 163.079 67.7618 163.844C67.7618 164.217 67.9064 164.511 68.1958 164.726C68.4851 164.941 68.8864 165.048 69.3998 165.048ZM78.5399 166.084C77.7839 166.084 77.1072 165.921 76.5099 165.594C75.9219 165.267 75.4599 164.819 75.1239 164.25C74.7879 163.671 74.6199 163.018 74.6199 162.29C74.6199 161.562 74.7879 160.913 75.1239 160.344C75.4599 159.765 75.9219 159.317 76.5099 159C77.1072 158.673 77.7839 158.51 78.5399 158.51C79.2119 158.51 79.8092 158.645 80.3319 158.916C80.8639 159.187 81.2746 159.579 81.5639 160.092L80.5419 160.75C80.3086 160.395 80.0192 160.129 79.6739 159.952C79.3286 159.775 78.9459 159.686 78.5259 159.686C78.0406 159.686 77.6019 159.793 77.2099 160.008C76.8272 160.223 76.5239 160.531 76.2999 160.932C76.0852 161.324 75.9779 161.777 75.9779 162.29C75.9779 162.813 76.0852 163.275 76.2999 163.676C76.5239 164.068 76.8272 164.371 77.2099 164.586C77.6019 164.801 78.0406 164.908 78.5259 164.908C78.9459 164.908 79.3286 164.819 79.6739 164.642C80.0192 164.465 80.3086 164.199 80.5419 163.844L81.5639 164.488C81.2746 165.001 80.8639 165.398 80.3319 165.678C79.8092 165.949 79.2119 166.084 78.5399 166.084ZM88.7383 159.756H86.0222V166H84.6783V159.756H81.9623V158.58H88.7383V159.756ZM90.1125 158.58H91.4565V161.73H95.6845V158.58H97.0285V166H95.6845V162.892H91.4565V166H90.1125V158.58ZM99.6418 158.58H100.986V163.984L105.536 158.58H106.754V166H105.41V160.596L100.874 166H99.6418V158.58ZM112.247 162.864H110.707V166H109.363V158.58H110.707V161.716H112.275L114.683 158.58H116.125L113.311 162.15L116.321 166H114.739L112.247 162.864ZM120.662 166.084C119.924 166.084 119.262 165.921 118.674 165.594C118.086 165.267 117.624 164.819 117.288 164.25C116.961 163.671 116.798 163.018 116.798 162.29C116.798 161.562 116.961 160.913 117.288 160.344C117.624 159.765 118.086 159.317 118.674 159C119.262 158.673 119.924 158.51 120.662 158.51C121.399 158.51 122.057 158.673 122.636 159C123.224 159.317 123.681 159.765 124.008 160.344C124.344 160.913 124.512 161.562 124.512 162.29C124.512 163.018 124.344 163.671 124.008 164.25C123.681 164.819 123.224 165.267 122.636 165.594C122.057 165.921 121.399 166.084 120.662 166.084ZM120.662 164.908C121.138 164.908 121.562 164.801 121.936 164.586C122.318 164.362 122.617 164.054 122.832 163.662C123.046 163.261 123.154 162.803 123.154 162.29C123.154 161.777 123.046 161.324 122.832 160.932C122.617 160.531 122.318 160.223 121.936 160.008C121.562 159.793 121.138 159.686 120.662 159.686C120.186 159.686 119.756 159.793 119.374 160.008C119 160.223 118.702 160.531 118.478 160.932C118.263 161.324 118.156 161.777 118.156 162.29C118.156 162.803 118.263 163.261 118.478 163.662C118.702 164.054 119 164.362 119.374 164.586C119.756 164.801 120.186 164.908 120.662 164.908ZM131.506 162.15C132.468 162.393 132.948 162.995 132.948 163.956C132.948 164.609 132.701 165.113 132.206 165.468C131.721 165.823 130.993 166 130.022 166H126.452V158.58H129.896C130.774 158.58 131.46 158.748 131.954 159.084C132.449 159.411 132.696 159.877 132.696 160.484C132.696 160.876 132.589 161.217 132.374 161.506C132.169 161.786 131.88 162.001 131.506 162.15ZM127.768 161.772H129.784C130.298 161.772 130.685 161.679 130.946 161.492C131.217 161.305 131.352 161.035 131.352 160.68C131.352 159.971 130.83 159.616 129.784 159.616H127.768V161.772ZM129.924 164.964C130.484 164.964 130.904 164.875 131.184 164.698C131.464 164.521 131.604 164.245 131.604 163.872C131.604 163.489 131.474 163.205 131.212 163.018C130.96 162.831 130.559 162.738 130.008 162.738H127.768V164.964H129.924Z" fill="white"/>
	<path d="M63.3611 85V70L61.4111 71.77L59.3111 69.37L64.0511 65.23H66.9611V85H63.3611ZM75.2526 85.33C73.5926 85.33 72.3026 84.85 71.3826 83.89C70.4826 82.91 70.0326 81.54 70.0326 79.78V70.33C70.0326 68.55 70.4826 67.18 71.3826 66.22C72.3026 65.26 73.5926 64.78 75.2526 64.78C76.9126 64.78 78.1926 65.26 79.0926 66.22C80.0126 67.18 80.4726 68.55 80.4726 70.33V79.78C80.4726 81.54 80.0126 82.91 79.0926 83.89C78.1926 84.85 76.9126 85.33 75.2526 85.33ZM75.2526 67.93C74.7326 67.93 74.3326 68.14 74.0526 68.56C73.7726 68.98 73.6326 69.57 73.6326 70.33V79.78C73.6326 80.54 73.7726 81.13 74.0526 81.55C74.3326 81.97 74.7326 82.18 75.2526 82.18C75.7726 82.18 76.1726 81.97 76.4526 81.55C76.7326 81.13 76.8726 80.54 76.8726 79.78V70.33C76.8726 69.57 76.7326 68.98 76.4526 68.56C76.1726 68.14 75.7726 67.93 75.2526 67.93ZM84.9869 86.32L81.9869 85.06L91.5269 62.47L94.5269 63.73L84.9869 86.32ZM94.9689 85V82.81L99.8289 74.47C100.329 73.61 100.709 72.87 100.969 72.25C101.249 71.61 101.389 70.99 101.389 70.39V69.67C101.389 69.09 101.249 68.64 100.969 68.32C100.709 68 100.359 67.84 99.9189 67.84C99.4589 67.84 99.0889 68.01 98.8089 68.35C98.5489 68.69 98.4189 69.15 98.4189 69.73V71.11H94.9689V69.79C94.9689 68.23 95.4089 67.01 96.2889 66.13C97.1689 65.23 98.3589 64.78 99.8589 64.78C101.419 64.78 102.649 65.22 103.549 66.1C104.469 66.98 104.929 68.19 104.929 69.73V70.39C104.929 71.27 104.739 72.12 104.359 72.94C103.999 73.74 103.509 74.66 102.889 75.7L99.2589 81.82H105.079L104.419 85H94.9689ZM112.255 85.33C110.595 85.33 109.305 84.85 108.385 83.89C107.485 82.91 107.035 81.54 107.035 79.78V70.33C107.035 68.55 107.485 67.18 108.385 66.22C109.305 65.26 110.595 64.78 112.255 64.78C113.915 64.78 115.195 65.26 116.095 66.22C117.015 67.18 117.475 68.55 117.475 70.33V79.78C117.475 81.54 117.015 82.91 116.095 83.89C115.195 84.85 113.915 85.33 112.255 85.33ZM112.255 67.93C111.735 67.93 111.335 68.14 111.055 68.56C110.775 68.98 110.635 69.57 110.635 70.33V79.78C110.635 80.54 110.775 81.13 111.055 81.55C111.335 81.97 111.735 82.18 112.255 82.18C112.775 82.18 113.175 81.97 113.455 81.55C113.735 81.13 113.875 80.54 113.875 79.78V70.33C113.875 69.57 113.735 68.98 113.455 68.56C113.175 68.14 112.775 67.93 112.255 67.93Z" fill="white"/>
	<path d="M57.334 102.086C57.334 103.383 56.8813 104.401 55.976 105.138C55.0707 105.875 53.792 106.272 52.14 106.328V107.364H50.838V106.328C49.186 106.263 47.9027 105.861 46.988 105.124C46.0827 104.387 45.63 103.374 45.63 102.086C45.63 100.789 46.0827 99.7713 46.988 99.034C47.9027 98.2967 49.186 97.8953 50.838 97.83V96.836H52.14V97.83C53.7827 97.8953 55.0567 98.3013 55.962 99.048C56.8767 99.7853 57.334 100.798 57.334 102.086ZM52.14 105.236C53.3907 105.161 54.3427 104.858 54.996 104.326C55.6587 103.785 55.99 103.033 55.99 102.072C55.99 101.129 55.654 100.392 54.982 99.86C54.3193 99.3187 53.372 99.0107 52.14 98.936V105.236ZM46.988 102.086C46.988 103.038 47.3193 103.785 47.982 104.326C48.654 104.858 49.606 105.161 50.838 105.236V98.936C49.5873 99.0107 48.6307 99.314 47.968 99.846C47.3147 100.378 46.988 101.125 46.988 102.086ZM62.4409 107.084C61.7036 107.084 61.0409 106.921 60.4529 106.594C59.8649 106.267 59.4029 105.819 59.0669 105.25C58.7403 104.671 58.5769 104.018 58.5769 103.29C58.5769 102.562 58.7403 101.913 59.0669 101.344C59.4029 100.765 59.8649 100.317 60.4529 100C61.0409 99.6733 61.7036 99.51 62.4409 99.51C63.1783 99.51 63.8363 99.6733 64.4149 100C65.0029 100.317 65.4603 100.765 65.7869 101.344C66.1229 101.913 66.2909 102.562 66.2909 103.29C66.2909 104.018 66.1229 104.671 65.7869 105.25C65.4603 105.819 65.0029 106.267 64.4149 106.594C63.8363 106.921 63.1783 107.084 62.4409 107.084ZM62.4409 105.908C62.9169 105.908 63.3416 105.801 63.7149 105.586C64.0976 105.362 64.3963 105.054 64.6109 104.662C64.8256 104.261 64.9329 103.803 64.9329 103.29C64.9329 102.777 64.8256 102.324 64.6109 101.932C64.3963 101.531 64.0976 101.223 63.7149 101.008C63.3416 100.793 62.9169 100.686 62.4409 100.686C61.9649 100.686 61.5356 100.793 61.1529 101.008C60.7796 101.223 60.4809 101.531 60.2569 101.932C60.0423 102.324 59.9349 102.777 59.9349 103.29C59.9349 103.803 60.0423 104.261 60.2569 104.662C60.4809 105.054 60.7796 105.362 61.1529 105.586C61.5356 105.801 61.9649 105.908 62.4409 105.908ZM73.4883 100.756H70.7722V107H69.4283V100.756H66.7123V99.58H73.4883V100.756ZM77.7124 107.084C76.9751 107.084 76.3124 106.921 75.7244 106.594C75.1364 106.267 74.6744 105.819 74.3384 105.25C74.0118 104.671 73.8484 104.018 73.8484 103.29C73.8484 102.562 74.0118 101.913 74.3384 101.344C74.6744 100.765 75.1364 100.317 75.7244 100C76.3124 99.6733 76.9751 99.51 77.7124 99.51C78.4498 99.51 79.1078 99.6733 79.6864 100C80.2744 100.317 80.7318 100.765 81.0584 101.344C81.3944 101.913 81.5624 102.562 81.5624 103.29C81.5624 104.018 81.3944 104.671 81.0584 105.25C80.7318 105.819 80.2744 106.267 79.6864 106.594C79.1078 106.921 78.4498 107.084 77.7124 107.084ZM77.7124 105.908C78.1884 105.908 78.6131 105.801 78.9864 105.586C79.3691 105.362 79.6678 105.054 79.8824 104.662C80.0971 104.261 80.2044 103.803 80.2044 103.29C80.2044 102.777 80.0971 102.324 79.8824 101.932C79.6678 101.531 79.3691 101.223 78.9864 101.008C78.6131 100.793 78.1884 100.686 77.7124 100.686C77.2364 100.686 76.8071 100.793 76.4244 101.008C76.0511 101.223 75.7524 101.531 75.5284 101.932C75.3138 102.324 75.2064 102.777 75.2064 103.29C75.2064 103.803 75.3138 104.261 75.5284 104.662C75.7524 105.054 76.0511 105.362 76.4244 105.586C76.8071 105.801 77.2364 105.908 77.7124 105.908ZM86.6812 107.084C85.9438 107.084 85.2812 106.921 84.6932 106.594C84.1052 106.267 83.6432 105.819 83.3072 105.25C82.9805 104.671 82.8172 104.018 82.8172 103.29C82.8172 102.562 82.9805 101.913 83.3072 101.344C83.6432 100.765 84.1052 100.317 84.6932 100C85.2812 99.6733 85.9438 99.51 86.6812 99.51C87.4185 99.51 88.0765 99.6733 88.6552 100C89.2432 100.317 89.7005 100.765 90.0272 101.344C90.3632 101.913 90.5312 102.562 90.5312 103.29C90.5312 104.018 90.3632 104.671 90.0272 105.25C89.7005 105.819 89.2432 106.267 88.6552 106.594C88.0765 106.921 87.4185 107.084 86.6812 107.084ZM86.6812 105.908C87.1572 105.908 87.5818 105.801 87.9552 105.586C88.3378 105.362 88.6365 105.054 88.8512 104.662C89.0658 104.261 89.1732 103.803 89.1732 103.29C89.1732 102.777 89.0658 102.324 88.8512 101.932C88.6365 101.531 88.3378 101.223 87.9552 101.008C87.5818 100.793 87.1572 100.686 86.6812 100.686C86.2052 100.686 85.7758 100.793 85.3932 101.008C85.0198 101.223 84.7212 101.531 84.4972 101.932C84.2825 102.324 84.1752 102.777 84.1752 103.29C84.1752 103.803 84.2825 104.261 84.4972 104.662C84.7212 105.054 85.0198 105.362 85.3932 105.586C85.7758 105.801 86.2052 105.908 86.6812 105.908ZM97.7285 100.756H95.0125V107H93.6685V100.756H90.9525V99.58H97.7285V100.756ZM105.025 99.58V107H103.681V104.004C102.878 104.377 102.08 104.564 101.287 104.564C100.363 104.564 99.6488 104.349 99.1448 103.92C98.6408 103.491 98.3888 102.847 98.3888 101.988V99.58H99.7328V101.904C99.7328 102.417 99.8914 102.805 100.209 103.066C100.535 103.327 100.988 103.458 101.567 103.458C102.22 103.458 102.925 103.295 103.681 102.968V99.58H105.025ZM114.34 103.332C114.34 103.435 114.331 103.57 114.312 103.738H108.292C108.376 104.391 108.661 104.919 109.146 105.32C109.641 105.712 110.252 105.908 110.98 105.908C111.867 105.908 112.581 105.609 113.122 105.012L113.864 105.88C113.528 106.272 113.108 106.571 112.604 106.776C112.109 106.981 111.554 107.084 110.938 107.084C110.154 107.084 109.459 106.925 108.852 106.608C108.245 106.281 107.774 105.829 107.438 105.25C107.111 104.671 106.948 104.018 106.948 103.29C106.948 102.571 107.107 101.923 107.424 101.344C107.751 100.765 108.194 100.317 108.754 100C109.323 99.6733 109.963 99.51 110.672 99.51C111.381 99.51 112.011 99.6733 112.562 100C113.122 100.317 113.556 100.765 113.864 101.344C114.181 101.923 114.34 102.585 114.34 103.332ZM110.672 100.644C110.028 100.644 109.487 100.84 109.048 101.232C108.619 101.624 108.367 102.137 108.292 102.772H113.052C112.977 102.147 112.721 101.638 112.282 101.246C111.853 100.845 111.316 100.644 110.672 100.644ZM121.641 100.756H118.925V107H117.581V100.756H114.865V99.58H121.641V100.756ZM126.361 102.1C127.294 102.109 128.008 102.324 128.503 102.744C128.998 103.164 129.245 103.757 129.245 104.522C129.245 105.325 128.974 105.945 128.433 106.384C127.901 106.813 127.136 107.023 126.137 107.014L123.015 107V99.58H124.359V102.086L126.361 102.1ZM130.351 99.58H131.695V107H130.351V99.58ZM126.039 105.992C126.646 106.001 127.103 105.88 127.411 105.628C127.728 105.376 127.887 105.003 127.887 104.508C127.887 104.023 127.733 103.668 127.425 103.444C127.117 103.22 126.655 103.103 126.039 103.094L124.359 103.066V105.978L126.039 105.992Z" fill="white"/>
	<path d="M359.159 164.782V168.142H357.857V166H349.793L349.779 168.142H348.477L348.491 164.782H348.967C349.583 164.745 350.017 164.259 350.269 163.326C350.521 162.383 350.675 161.058 350.731 159.35L350.829 156.2H357.717V164.782H359.159ZM351.963 159.476C351.916 160.857 351.804 162.001 351.627 162.906C351.459 163.811 351.184 164.437 350.801 164.782H356.331V157.418H352.033L351.963 159.476ZM363.863 166.084C363.125 166.084 362.463 165.921 361.875 165.594C361.287 165.267 360.825 164.819 360.489 164.25C360.162 163.671 359.999 163.018 359.999 162.29C359.999 161.562 360.162 160.913 360.489 160.344C360.825 159.765 361.287 159.317 361.875 159C362.463 158.673 363.125 158.51 363.863 158.51C364.6 158.51 365.258 158.673 365.837 159C366.425 159.317 366.882 159.765 367.209 160.344C367.545 160.913 367.713 161.562 367.713 162.29C367.713 163.018 367.545 163.671 367.209 164.25C366.882 164.819 366.425 165.267 365.837 165.594C365.258 165.921 364.6 166.084 363.863 166.084ZM363.863 164.908C364.339 164.908 364.763 164.801 365.137 164.586C365.519 164.362 365.818 164.054 366.033 163.662C366.247 163.261 366.355 162.803 366.355 162.29C366.355 161.777 366.247 161.324 366.033 160.932C365.818 160.531 365.519 160.223 365.137 160.008C364.763 159.793 364.339 159.686 363.863 159.686C363.387 159.686 362.957 159.793 362.575 160.008C362.201 160.223 361.903 160.531 361.679 160.932C361.464 161.324 361.357 161.777 361.357 162.29C361.357 162.803 361.464 163.261 361.679 163.662C361.903 164.054 362.201 164.362 362.575 164.586C362.957 164.801 363.387 164.908 363.863 164.908ZM376.297 162.864H374.757V166H373.413V158.58H374.757V161.716H376.325L378.733 158.58H380.175L377.361 162.15L380.371 166H378.789L376.297 162.864ZM384.712 166.084C383.975 166.084 383.312 165.921 382.724 165.594C382.136 165.267 381.674 164.819 381.338 164.25C381.012 163.671 380.848 163.018 380.848 162.29C380.848 161.562 381.012 160.913 381.338 160.344C381.674 159.765 382.136 159.317 382.724 159C383.312 158.673 383.975 158.51 384.712 158.51C385.45 158.51 386.108 158.673 386.686 159C387.274 159.317 387.732 159.765 388.058 160.344C388.394 160.913 388.562 161.562 388.562 162.29C388.562 163.018 388.394 163.671 388.058 164.25C387.732 164.819 387.274 165.267 386.686 165.594C386.108 165.921 385.45 166.084 384.712 166.084ZM384.712 164.908C385.188 164.908 385.613 164.801 385.986 164.586C386.369 164.362 386.668 164.054 386.882 163.662C387.097 163.261 387.204 162.803 387.204 162.29C387.204 161.777 387.097 161.324 386.882 160.932C386.668 160.531 386.369 160.223 385.986 160.008C385.613 159.793 385.188 159.686 384.712 159.686C384.236 159.686 383.807 159.793 383.424 160.008C383.051 160.223 382.752 160.531 382.528 160.932C382.314 161.324 382.206 161.777 382.206 162.29C382.206 162.803 382.314 163.261 382.528 163.662C382.752 164.054 383.051 164.362 383.424 164.586C383.807 164.801 384.236 164.908 384.712 164.908ZM390.503 158.58H391.847V161.73H396.075V158.58H397.419V166H396.075V162.892H391.847V166H390.503V158.58ZM407.956 164.824V167.778H406.682V166H400.032V158.58H401.376V164.824H405.436V158.58H406.78V164.824H407.956ZM412.344 158.51C413.371 158.51 414.155 158.762 414.696 159.266C415.247 159.77 415.522 160.521 415.522 161.52V166H414.248V165.02C414.024 165.365 413.702 165.631 413.282 165.818C412.872 165.995 412.382 166.084 411.812 166.084C410.982 166.084 410.314 165.883 409.81 165.482C409.316 165.081 409.068 164.553 409.068 163.9C409.068 163.247 409.306 162.724 409.782 162.332C410.258 161.931 411.014 161.73 412.05 161.73H414.178V161.464C414.178 160.885 414.01 160.442 413.674 160.134C413.338 159.826 412.844 159.672 412.19 159.672C411.752 159.672 411.322 159.747 410.902 159.896C410.482 160.036 410.128 160.227 409.838 160.47L409.278 159.462C409.661 159.154 410.118 158.921 410.65 158.762C411.182 158.594 411.747 158.51 412.344 158.51ZM412.036 165.048C412.55 165.048 412.993 164.936 413.366 164.712C413.74 164.479 414.01 164.152 414.178 163.732V162.696H412.106C410.968 162.696 410.398 163.079 410.398 163.844C410.398 164.217 410.543 164.511 410.832 164.726C411.122 164.941 411.523 165.048 412.036 165.048ZM426.756 162.15C427.718 162.393 428.198 162.995 428.198 163.956C428.198 164.609 427.951 165.113 427.456 165.468C426.971 165.823 426.243 166 425.272 166H421.702V158.58H425.146C426.024 158.58 426.71 158.748 427.204 159.084C427.699 159.411 427.946 159.877 427.946 160.484C427.946 160.876 427.839 161.217 427.624 161.506C427.419 161.786 427.13 162.001 426.756 162.15ZM423.018 161.772H425.034C425.548 161.772 425.935 161.679 426.196 161.492C426.467 161.305 426.602 161.035 426.602 160.68C426.602 159.971 426.08 159.616 425.034 159.616H423.018V161.772ZM425.174 164.964C425.734 164.964 426.154 164.875 426.434 164.698C426.714 164.521 426.854 164.245 426.854 163.872C426.854 163.489 426.724 163.205 426.462 163.018C426.21 162.831 425.809 162.738 425.258 162.738H423.018V164.964H425.174ZM433.48 166.084C432.743 166.084 432.08 165.921 431.492 165.594C430.904 165.267 430.442 164.819 430.106 164.25C429.779 163.671 429.616 163.018 429.616 162.29C429.616 161.562 429.779 160.913 430.106 160.344C430.442 159.765 430.904 159.317 431.492 159C432.08 158.673 432.743 158.51 433.48 158.51C434.217 158.51 434.875 158.673 435.454 159C436.042 159.317 436.499 159.765 436.826 160.344C437.162 160.913 437.33 161.562 437.33 162.29C437.33 163.018 437.162 163.671 436.826 164.25C436.499 164.819 436.042 165.267 435.454 165.594C434.875 165.921 434.217 166.084 433.48 166.084ZM433.48 164.908C433.956 164.908 434.381 164.801 434.754 164.586C435.137 164.362 435.435 164.054 435.65 163.662C435.865 163.261 435.972 162.803 435.972 162.29C435.972 161.777 435.865 161.324 435.65 160.932C435.435 160.531 435.137 160.223 434.754 160.008C434.381 159.793 433.956 159.686 433.48 159.686C433.004 159.686 432.575 159.793 432.192 160.008C431.819 160.223 431.52 160.531 431.296 160.932C431.081 161.324 430.974 161.777 430.974 162.29C430.974 162.803 431.081 163.261 431.296 163.662C431.52 164.054 431.819 164.362 432.192 164.586C432.575 164.801 433.004 164.908 433.48 164.908ZM445.586 158.58V166H444.242V159.756H441.05L440.966 161.408C440.919 162.407 440.831 163.242 440.7 163.914C440.569 164.577 440.355 165.109 440.056 165.51C439.757 165.911 439.342 166.112 438.81 166.112C438.567 166.112 438.292 166.07 437.984 165.986L438.068 164.852C438.189 164.88 438.301 164.894 438.404 164.894C438.777 164.894 439.057 164.731 439.244 164.404C439.431 164.077 439.552 163.69 439.608 163.242C439.664 162.794 439.715 162.155 439.762 161.324L439.888 158.58H445.586ZM448.185 158.58H449.529V161.73H453.757V158.58H455.101V166H453.757V162.892H449.529V166H448.185V158.58ZM461.06 161.1C461.993 161.109 462.707 161.324 463.202 161.744C463.697 162.164 463.944 162.757 463.944 163.522C463.944 164.325 463.673 164.945 463.132 165.384C462.6 165.813 461.835 166.023 460.836 166.014L457.714 166V158.58H459.058V161.086L461.06 161.1ZM465.05 158.58H466.394V166H465.05V158.58ZM460.738 164.992C461.345 165.001 461.802 164.88 462.11 164.628C462.427 164.376 462.586 164.003 462.586 163.508C462.586 163.023 462.432 162.668 462.124 162.444C461.816 162.22 461.354 162.103 460.738 162.094L459.058 162.066V164.978L460.738 164.992Z" fill="white"/>
	<path d="M408 56C398.389 56 389.019 59.0106 381.206 64.6091C373.393 70.2075 367.531 78.1125 364.441 87.2138C361.352 96.3151 361.191 106.156 363.981 115.353C366.771 124.551 372.372 132.643 379.997 138.494C387.622 144.345 396.889 147.661 406.495 147.975C416.101 148.29 425.565 145.587 433.556 140.248C441.548 134.908 447.666 127.199 451.052 118.204C454.437 109.208 454.92 99.3782 452.433 90.0943L408 102L408 56Z" fill="white"/>
	<circle cx="408" cy="102" r="41" fill="#004798"/>
	<path d="M406.229 96.93V102H402.779V96.93H396.719V94.2L403.439 82.23H406.229V94.08H407.669V96.93H406.229ZM399.659 94.08H402.779V88.5L399.659 94.08ZM415.323 89.13C416.623 89.13 417.643 89.59 418.383 90.51C419.143 91.41 419.523 92.66 419.523 94.26V97.2C419.523 98.8 419.053 100.06 418.113 100.98C417.173 101.88 415.893 102.33 414.273 102.33C412.693 102.33 411.493 101.88 410.673 100.98C409.873 100.06 409.473 98.8 409.473 97.2V96.72H412.923V97.2C412.923 97.84 413.043 98.35 413.283 98.73C413.523 99.09 413.903 99.27 414.423 99.27C414.943 99.27 415.323 99.09 415.563 98.73C415.803 98.35 415.923 97.84 415.923 97.2V94.26C415.923 93.6 415.763 93.08 415.443 92.7C415.143 92.32 414.723 92.13 414.183 92.13C413.743 92.13 413.343 92.26 412.983 92.52C412.643 92.76 412.403 93.11 412.263 93.57H409.923V82.23H418.713V85.32H413.163V89.82C413.443 89.62 413.753 89.46 414.093 89.34C414.453 89.2 414.863 89.13 415.323 89.13Z" fill="white"/>
	<path d="M398.864 120.782V124.142H397.562V122H389.498L389.484 124.142H388.182L388.196 120.782H388.672C389.288 120.745 389.722 120.259 389.974 119.326C390.226 118.383 390.38 117.058 390.436 115.35L390.534 112.2H397.422V120.782H398.864ZM391.668 115.476C391.621 116.857 391.509 118.001 391.332 118.906C391.164 119.811 390.889 120.437 390.506 120.782H396.036V113.418H391.738L391.668 115.476ZM400.554 114.58H401.898V117.73H406.126V114.58H407.47V122H406.126V118.892H401.898V122H400.554V114.58ZM416.789 118.332C416.789 118.435 416.78 118.57 416.761 118.738H410.741C410.825 119.391 411.11 119.919 411.595 120.32C412.09 120.712 412.701 120.908 413.429 120.908C414.316 120.908 415.03 120.609 415.571 120.012L416.313 120.88C415.977 121.272 415.557 121.571 415.053 121.776C414.559 121.981 414.003 122.084 413.387 122.084C412.603 122.084 411.908 121.925 411.301 121.608C410.695 121.281 410.223 120.829 409.887 120.25C409.561 119.671 409.397 119.018 409.397 118.29C409.397 117.571 409.556 116.923 409.873 116.344C410.2 115.765 410.643 115.317 411.203 115C411.773 114.673 412.412 114.51 413.121 114.51C413.831 114.51 414.461 114.673 415.011 115C415.571 115.317 416.005 115.765 416.313 116.344C416.631 116.923 416.789 117.585 416.789 118.332ZM413.121 115.644C412.477 115.644 411.936 115.84 411.497 116.232C411.068 116.624 410.816 117.137 410.741 117.772H415.501C415.427 117.147 415.17 116.638 414.731 116.246C414.302 115.845 413.765 115.644 413.121 115.644ZM418.874 114.58H420.218V119.984L424.768 114.58H425.986V122H424.642V116.596L420.106 122H418.874V114.58ZM422.346 113.614C421.656 113.614 421.119 113.451 420.736 113.124C420.354 112.788 420.158 112.307 420.148 111.682H421.058C421.068 112.027 421.184 112.307 421.408 112.522C421.642 112.727 421.95 112.83 422.332 112.83C422.715 112.83 423.023 112.727 423.256 112.522C423.49 112.307 423.611 112.027 423.62 111.682H424.558C424.549 112.307 424.348 112.788 423.956 113.124C423.564 113.451 423.028 113.614 422.346 113.614Z" fill="white"/>
	<defs>
		<filter id="filter0_i_161_6891" x="-1" y="31" width="486" height="161.5" filterUnits="userSpaceOnUse" color-interpolation-filters="sRGB">
			<feFlood flood-opacity="0" result="BackgroundImageFix"/>
			<feBlend mode="normal" in="SourceGraphic" in2="BackgroundImageFix" result="shape"/>
			<feColorMatrix in="SourceAlpha" type="matrix" values="0 0 0 0 0 0 0 0 0 0 0 0 0 0 0 0 0 0 127 0" result="hardAlpha"/>
			<feOffset dx="-1" dy="4"/>
			<feGaussianBlur stdDeviation="4"/>
			<feComposite in2="hardAlpha" operator="arithmetic" k2="-1" k3="1"/>
			<feColorMatrix type="matrix" values="0 0 0 0 0 0 0 0 0 0 0 0 0 0 0 0 0 0 0.25 0"/>
			<feBlend mode="normal" in2="shape" result="effect1_innerShadow_161_6891"/>
		</filter>
	</defs>
</svg>
