<svg width="1625" height="60" viewBox="0 0 1625 60" fill="none" xmlns="http://www.w3.org/2000/svg">
	<path d="M1074.25 40H1611.49L1624.24 0H1087L1074.25 40Z" fill="#E7332B"/>
	<path d="M-128 0V40H1063.01L1075.76 0H-128Z" fill="#004798"/>
	<path d="M1454.81 14.6209H1448.75L1450.08 9.13696H1468.08L1466.76 14.6209H1460.85L1456.87 30.898H1450.87L1454.81 14.6209Z" fill="white"/>
	<path d="M1470.54 9.13696H1488.37L1487.06 14.6343H1475.01L1474.25 17.6317H1484.85L1483.58 22.4704H1473.06L1472.38 25.4275H1484.41L1483.16 30.9248H1465.2L1470.54 9.13696Z" fill="white"/>
	<path d="M1542.54 9.13696H1548.44L1544.54 25.4275H1553.2L1551.86 30.9248H1537.29L1542.54 9.13696Z" fill="white"/>
	<path d="M1529.14 30.898L1534.41 9.13696H1540.48L1535.22 30.8711L1529.14 30.898Z" fill="white"/>
	<path d="M1493.6 22.3903L1492.88 25.428H1497.98C1499.44 25.428 1499.88 24.7694 1499.99 23.9899C1500.02 23.8092 1500.02 23.6228 1499.98 23.4425C1499.95 23.2622 1499.87 23.0918 1499.76 22.9417C1499.66 22.7917 1499.52 22.6655 1499.36 22.5706C1499.2 22.4757 1499.03 22.4143 1498.84 22.3903H1493.6ZM1503.92 9.15093C1504.61 9.14308 1505.29 9.28729 1505.92 9.5731C1506.54 9.8589 1507.1 10.2792 1507.54 10.8041C1508.14 11.5809 1508.51 12.5038 1508.63 13.4756C1508.74 14.4474 1508.59 15.4323 1508.19 16.3264C1507.8 17.2206 1507.16 17.991 1506.37 18.5567C1505.57 19.1224 1504.63 19.4623 1503.66 19.5408C1503.54 19.5408 1507.55 20.0786 1506.44 25.213C1506.12 26.7781 1505.28 28.1901 1504.06 29.2234C1502.84 30.2566 1501.31 30.8513 1499.72 30.912H1485.47L1490.74 9.12402L1503.92 9.15093ZM1495.51 14.393L1494.8 17.4172H1499.89C1501.36 17.4172 1501.79 16.7585 1501.9 15.9924C1501.93 15.8117 1501.93 15.6255 1501.89 15.4452C1501.85 15.2649 1501.78 15.0944 1501.67 14.9444C1501.56 14.7944 1501.43 14.668 1501.27 14.5731C1501.11 14.4782 1500.94 14.4169 1500.75 14.393H1495.51Z" fill="white"/>
	<path d="M1522.46 8.4922C1530.36 8.34434 1531.48 14.917 1529.85 20.4682C1527.62 29.7022 1523.28 31.4897 1516.41 31.4897C1508.83 31.4897 1507.77 26.0192 1508.64 20.0514C1510.86 9.41959 1516.36 8.53252 1521.36 8.4922H1522.41H1522.46ZM1514.8 19.8365C1513.83 23.3177 1514.5 25.6295 1517.85 25.6295C1520.39 25.6295 1522.76 24.8364 1523.93 19.8767C1524.66 16.6105 1524.21 14.339 1520.97 14.3794C1519.62 14.3794 1516.16 14.1375 1514.8 19.8365Z" fill="white"/>
</svg>
