<svg width="1628" height="60" viewBox="0 0 1628 60" fill="none" xmlns="http://www.w3.org/2000/svg">
	<path d="M978.934 60H1614.49L1627.24 0H991.683L978.934 60Z" fill="#E7332B"/>
	<path d="M-125 0V60H961.014L973.762 0H-125Z" fill="#004798"/>
	<path d="M1481.53 23.3477H1474.75L1476.24 17.2139H1496.37L1494.89 23.3477H1488.28L1483.83 41.5537H1477.12L1481.53 23.3477Z" fill="white"/>
	<path d="M1499.12 17.2139H1519.07L1517.6 23.3628H1504.13L1503.27 26.7153H1515.13L1513.7 32.1275H1501.95L1501.18 35.4349H1514.63L1513.24 41.5838H1493.15L1499.12 17.2139Z" fill="white"/>
	<path d="M1579.66 17.2139H1586.26L1581.9 35.4349H1591.58L1590.07 41.5838H1573.78L1579.66 17.2139Z" fill="white"/>
	<path d="M1564.67 41.5537L1570.56 17.2139H1577.36L1571.46 41.5236L1564.67 41.5537Z" fill="white"/>
	<path d="M1524.92 32.0369L1524.11 35.4345H1529.82C1531.44 35.4345 1531.94 34.6979 1532.06 33.826C1532.1 33.6239 1532.1 33.4154 1532.06 33.2138C1532.01 33.0121 1531.93 32.8215 1531.81 32.6537C1531.69 32.4859 1531.54 32.3447 1531.36 32.2386C1531.18 32.1324 1530.99 32.0637 1530.78 32.0369H1524.92ZM1536.46 17.2286C1537.23 17.2198 1537.99 17.3811 1538.69 17.7008C1539.39 18.0204 1540.01 18.4906 1540.51 19.0777C1541.17 19.9466 1541.59 20.9788 1541.72 22.0658C1541.85 23.1527 1541.68 24.2543 1541.24 25.2544C1540.79 26.2545 1540.09 27.1162 1539.19 27.749C1538.3 28.3817 1537.25 28.7619 1536.16 28.8497C1536.03 28.8497 1540.52 29.4512 1539.27 35.1941C1538.92 36.9446 1537.98 38.524 1536.62 39.6797C1535.25 40.8354 1533.54 41.5005 1531.76 41.5684H1515.82L1521.72 17.1985L1536.46 17.2286ZM1527.05 23.0918L1526.26 26.4744H1531.95C1533.59 26.4744 1534.07 25.7377 1534.19 24.8807C1534.23 24.6786 1534.23 24.4704 1534.19 24.2687C1534.15 24.0671 1534.06 23.8764 1533.94 23.7086C1533.82 23.5408 1533.67 23.3994 1533.49 23.2933C1533.32 23.1872 1533.12 23.1186 1532.92 23.0918H1527.05Z" fill="white"/>
	<path d="M1557.2 16.4922C1566.03 16.3269 1567.28 23.6785 1565.46 29.8874C1562.97 40.2157 1558.11 42.2151 1550.43 42.2151C1541.95 42.2151 1540.76 36.0963 1541.74 29.4213C1544.22 17.5295 1550.37 16.5373 1555.96 16.4922H1557.13H1557.2ZM1548.63 29.1809C1547.54 33.0746 1548.3 35.6604 1552.04 35.6604C1554.88 35.6604 1557.53 34.7733 1558.83 29.2258C1559.66 25.5726 1559.15 23.032 1555.53 23.0771C1554.02 23.0771 1550.14 22.8065 1548.63 29.1809Z" fill="white"/>
</svg>
