<svg width="246" height="63" viewBox="0 0 246 63" fill="none" xmlns="http://www.w3.org/2000/svg">
	<g clip-path="url(#clip0_205_5581)">
		<path d="M246 0H0V63H246V0Z" fill="#E7332B"/>
		<path d="M26.5235 19.7059H13.975L16.7388 8.50989H53.9386L51.2193 19.7059H38.9829L30.7361 52.9101H18.3658L26.5235 19.7059Z" fill="white"/>
		<path d="M58.9981 8.50989H95.8858L93.122 19.7059H68.2702L66.6877 25.823H88.5974L85.9228 35.7098H64.2359L62.8317 41.7367H87.6836L85.0758 52.9552H47.9875L58.9981 8.50989Z" fill="white"/>
		<path d="M207.797 8.50989H220.011L211.965 41.7367H229.818L227.055 52.9552H196.943L207.797 8.50989Z" fill="white"/>
		<path d="M180.115 52.9101L190.992 8.50989H203.562L192.663 52.865L180.115 52.9101Z" fill="white"/>
		<path fill-rule="evenodd" clip-rule="evenodd" d="M110.641 19.3222L109.148 25.507H119.712C122.699 25.507 123.613 24.1753 123.836 22.5952C123.902 22.2234 123.893 21.8418 123.809 21.4737C123.725 21.1056 123.567 20.7587 123.346 20.4544C123.125 20.1501 122.845 19.8947 122.523 19.7039C122.201 19.5131 121.844 19.3909 121.473 19.3448L110.641 19.3222ZM128.026 8.62279C129.441 8.6137 130.841 8.91111 132.132 9.49509C133.424 10.0791 134.577 10.9361 135.515 12.0087C140.775 17.855 136.986 29.0961 127.469 29.841C127.201 29.841 135.515 30.9245 133.219 41.4207C132.513 44.6498 130.76 47.5466 128.24 49.6494C125.719 51.7522 122.576 52.9398 119.311 53.023H89.8902L100.722 8.50989L128.026 8.62279ZM106.674 35.7099L105.203 41.8721H115.745C118.754 41.8721 119.646 40.563 119.868 38.9603C119.936 38.5984 119.931 38.2265 119.855 37.8663C119.779 37.5062 119.634 37.1648 119.426 36.8623C119.219 36.5598 118.954 36.3022 118.647 36.1043C118.34 35.9064 117.998 35.7724 117.64 35.7099H106.785" fill="white"/>
		<path fill-rule="evenodd" clip-rule="evenodd" d="M150.493 30.3601C148.487 37.4479 149.869 42.1655 156.778 42.1655C162.061 42.1655 166.92 40.5403 169.349 30.4052C170.887 23.7689 169.951 19.119 163.242 19.119C160.389 19.3221 153.301 18.7353 150.493 30.3601ZM166.296 7.20066C182.656 6.90721 184.974 20.3153 181.608 31.6467C176.994 50.4722 168.012 54.2193 153.925 54.2193C138.323 54.2193 136.095 43.0684 137.878 30.8792C142.469 9.18702 153.836 7.38126 164.156 7.29097H166.385" fill="white"/>
	</g>
	<defs>
		<clipPath id="clip0_205_5581">
			<rect width="246" height="63" fill="white"/>
		</clipPath>
	</defs>
</svg>
