<svg width="235" height="60" viewBox="0 0 235 60" fill="none" xmlns="http://www.w3.org/2000/svg">
	<g clip-path="url(#clip0_1_2597)">
		<path d="M234.286 0H0V60H234.286V0Z" fill="#E7332B"/>
		<path d="M25.2605 18.7675H13.3096L15.9418 8.10461H51.3701L48.7804 18.7675H37.1266L29.2725 50.3905H17.4913L25.2605 18.7675Z" fill="white"/>
		<path d="M56.1887 8.10461H91.3199L88.6877 18.7675H65.0192L63.5121 24.5933H84.3785L81.8313 34.0093H61.1771L59.8398 39.7492H83.5082L81.0246 50.4335H45.7024L56.1887 8.10461Z" fill="white"/>
		<path d="M197.902 8.10461H209.535L201.872 39.7492H218.875L216.243 50.4335H187.564L197.902 8.10461Z" fill="white"/>
		<path d="M171.538 50.3905L181.897 8.10461H193.869L183.489 50.3475L171.538 50.3905Z" fill="white"/>
		<path fill-rule="evenodd" clip-rule="evenodd" d="M105.372 18.402L103.95 24.2924H114.012C116.856 24.2924 117.726 23.024 117.939 21.5192C118.002 21.1651 117.993 20.8017 117.913 20.4511C117.833 20.1005 117.683 19.7702 117.472 19.4804C117.262 19.1906 116.995 18.9473 116.688 18.7656C116.381 18.5839 116.041 18.4675 115.689 18.4235L105.372 18.402ZM121.93 8.21214C123.277 8.20348 124.61 8.48673 125.84 9.04291C127.07 9.59908 128.169 10.4153 129.062 11.4368C134.071 17.0047 130.463 27.7105 121.399 28.4199C121.144 28.4199 129.062 29.4518 126.875 39.4483C126.203 42.5236 124.534 45.2825 122.133 47.2851C119.732 49.2878 116.739 50.4188 113.63 50.498H85.6096L95.9261 8.10461L121.93 8.21214ZM101.594 34.0094L100.193 39.8782H110.233C113.099 39.8782 113.948 38.6314 114.16 37.105C114.224 36.7603 114.22 36.4062 114.148 36.0631C114.076 35.7201 113.937 35.395 113.739 35.1069C113.542 34.8188 113.289 34.5735 112.997 34.385C112.705 34.1966 112.379 34.0689 112.038 34.0094H101.7" fill="white"/>
		<path fill-rule="evenodd" clip-rule="evenodd" d="M143.327 28.9144C141.416 35.6647 142.732 40.1577 149.313 40.1577C154.344 40.1577 158.971 38.6098 161.285 28.9574C162.75 22.6371 161.858 18.2085 155.469 18.2085C152.752 18.402 146.001 17.8431 143.327 28.9144ZM158.377 6.85778C173.958 6.57831 176.165 19.3479 172.96 30.1397C168.566 48.0688 160.011 51.6374 146.596 51.6374C131.737 51.6374 129.614 41.0176 131.312 29.4088C135.685 8.74955 146.511 7.02978 156.339 6.94379H158.462" fill="white"/>
	</g>
	<defs>
		<clipPath id="clip0_1_2597">
			<rect width="234.286" height="60" fill="white"/>
		</clipPath>
	</defs>
</svg>
