<svg width="31" height="18" viewBox="0 0 31 18" fill="none" xmlns="http://www.w3.org/2000/svg">
	<path d="M15.4761 15.85C13.862 17.1907 11.7683 18 9.48037 18C4.37542 18 0.237045 13.9706 0.237045 9C0.237045 4.02944 4.37542 0 9.48037 0C11.7683 0 13.862 0.809339 15.4761 2.15001C17.0902 0.809339 19.1839 0 21.4718 0C26.5768 0 30.7151 4.02944 30.7151 9C30.7151 13.9706 26.5768 18 21.4718 18C19.1839 18 17.0902 17.1907 15.4761 15.85Z" fill="#ED0006"/>
	<path d="M15.4761 15.8499C17.4635 14.1992 18.7237 11.7429 18.7237 9C18.7237 6.25712 17.4635 3.80082 15.4761 2.15005C17.0902 0.809354 19.184 0 21.4719 0C26.5768 0 30.7152 4.02944 30.7152 9C30.7152 13.9706 26.5768 18 21.4719 18C19.184 18 17.0902 17.1906 15.4761 15.8499Z" fill="#F9A000"/>
	<path d="M15.4761 15.8499C17.4635 14.1991 18.7237 11.7428 18.7237 8.99989C18.7237 6.25698 17.4635 3.80067 15.4761 2.1499C13.4887 3.80067 12.2285 6.25698 12.2285 8.99989C12.2285 11.7428 13.4887 14.1991 15.4761 15.8499Z" fill="#FF5E00"/>
</svg>
