<svg width="29" height="29" viewBox="0 0 29 29" fill="none" xmlns="http://www.w3.org/2000/svg">
	<path fill-rule="evenodd" clip-rule="evenodd" d="M27.7916 7.25V21.75C27.7916 23.7465 26.1631 25.375 24.1666 25.375H4.83325C2.83674 25.375 1.20825 23.7465 1.20825 21.75V7.25C1.20825 5.24797 2.83122 3.625 4.83325 3.625H24.1666C26.1686 3.625 27.7916 5.24797 27.7916 7.25ZM3.7537 6.71102C3.95353 6.31587 4.36447 6.04167 4.83325 6.04167H24.1666C24.6354 6.04167 25.0463 6.31587 25.2461 6.71102L14.4999 14.2334L3.7537 6.71102ZM3.62492 9.57079L13.114 16.2132C13.9462 16.7957 15.0537 16.7957 15.8858 16.2132L25.3749 9.57079V21.75C25.3749 22.4118 24.8284 22.9583 24.1666 22.9583H4.83325C4.17143 22.9583 3.62492 22.4118 3.62492 21.75V9.57079Z" fill="#004798"/>
</svg>
