<svg width="73" height="73" viewBox="0 0 73 73" fill="none" xmlns="http://www.w3.org/2000/svg">
	<rect width="73" height="73" fill="#EEF2F8"/>
	<path fill-rule="evenodd" clip-rule="evenodd" d="M48 30H42.7839C42.3663 28.8163 41.2414 28 39.9553 28H33.0447C31.7586 28 30.6337 28.8163 30.2161 30H24C22.3431 30 21 31.3431 21 33V43C21 44.6569 22.3431 46 24 46H48C49.6569 46 51 44.6569 51 43V33C51 31.3431 49.6569 30 48 30ZM36 43C38.7614 43 41 40.7614 41 38C41 35.2386 38.7614 33 36 33C33.2386 33 31 35.2386 31 38C31 40.7614 33.2386 43 36 43Z" fill="white"/>
</svg>
