<svg width="176" height="46" viewBox="0 0 176 46" fill="none" xmlns="http://www.w3.org/2000/svg">
	<g clip-path="url(#clip0_112_6944)">
		<path d="M175.441 0.321289H0V45.502H175.441V0.321289Z" fill="#E7332B"/>
		<path d="M18.9159 14.4533H9.96661L11.9377 6.42407H38.4676L36.5283 14.4533H27.8016L21.9202 38.2659H13.0981L18.9159 14.4533Z" fill="white"/>
		<path d="M42.0758 6.42407H68.3832L66.4121 14.4533H48.6884L47.5599 18.8403H63.1853L61.2778 25.9306H45.8113L44.8099 30.2528H62.5336L60.6738 38.2983H34.2234L42.0758 6.42407Z" fill="white"/>
		<path d="M148.195 6.42407H156.906L151.168 30.2528H163.9L161.929 38.2983H140.454L148.195 6.42407Z" fill="white"/>
		<path d="M128.453 38.2659L136.21 6.42407H145.175L137.402 38.2335L128.453 38.2659Z" fill="white"/>
		<path fill-rule="evenodd" clip-rule="evenodd" d="M78.9061 14.1781L77.8411 18.6136H85.3756C87.5056 18.6136 88.1574 17.6586 88.3163 16.5254C88.3637 16.2588 88.3572 15.9851 88.2972 15.7211C88.2371 15.4571 88.1248 15.2084 87.967 14.9902C87.8093 14.7719 87.6094 14.5888 87.3798 14.4519C87.1501 14.3151 86.8955 14.2275 86.6314 14.1943L78.9061 14.1781ZM91.3047 6.50504C92.3135 6.49852 93.312 6.71181 94.2332 7.13062C95.1544 7.54942 95.9769 8.16405 96.6456 8.93324C100.397 13.1259 97.6948 21.1876 90.9073 21.7218C90.7166 21.7218 96.6456 22.4988 95.0084 30.0262C94.505 32.342 93.2548 34.4195 91.4571 35.9275C89.6595 37.4355 87.4178 38.2872 85.0895 38.3468H64.1072L71.8325 6.42407L91.3047 6.50504ZM76.0767 25.9306L75.0276 30.3499H82.5462C84.6921 30.3499 85.3279 29.4111 85.4869 28.2617C85.5349 28.0022 85.5318 27.7355 85.4776 27.4772C85.4235 27.2189 85.3194 26.9741 85.1715 26.7571C85.0235 26.5402 84.8347 26.3554 84.6159 26.2135C84.3972 26.0716 84.1529 25.9755 83.8973 25.9306H76.1561" fill="white"/>
		<path fill-rule="evenodd" clip-rule="evenodd" d="M107.327 22.0942C105.897 27.1773 106.882 30.5605 111.81 30.5605C115.577 30.5605 119.043 29.395 120.775 22.1266C121.872 17.3673 121.204 14.0326 116.42 14.0326C114.385 14.1783 109.33 13.7574 107.327 22.0942ZM118.598 5.48533C130.265 5.27488 131.918 14.8905 129.518 23.0169C126.227 36.5177 119.822 39.2049 109.775 39.2049C98.6485 39.2049 97.0589 31.2081 98.3306 22.4665C101.605 6.90986 109.712 5.61485 117.072 5.55009H118.661" fill="white"/>
	</g>
	<defs>
		<clipPath id="clip0_112_6944">
			<rect width="175.441" height="45.1807" fill="white" transform="translate(0 0.321289)"/>
		</clipPath>
	</defs>
</svg>
