<svg width="29" height="29" viewBox="0 0 29 29" fill="none" xmlns="http://www.w3.org/2000/svg">
	<path fill-rule="evenodd" clip-rule="evenodd" d="M24.1667 3.6237C24.8341 3.6237 25.3751 4.16469 25.3751 4.83203V18.1237C25.3751 18.791 24.8341 19.332 24.1667 19.332H20.5417C19.8744 19.332 19.3334 19.873 19.3334 20.5404V24.0022L14.0653 19.6121C13.8481 19.4311 13.5744 19.332 13.2917 19.332H4.83342C4.16607 19.332 3.62508 18.791 3.62508 18.1237V4.83203C3.62508 4.16469 4.16607 3.6237 4.83342 3.6237H24.1667ZM27.7917 4.83203C27.7917 2.83 26.1688 1.20703 24.1667 1.20703H4.83342C2.83139 1.20703 1.20842 2.83 1.20842 4.83203V18.1237C1.20842 20.1257 2.83138 21.7487 4.83342 21.7487H12.8543L19.7682 27.5103C20.1284 27.8105 20.6297 27.8752 21.0543 27.6763C21.4789 27.4774 21.7501 27.0509 21.7501 26.582V21.7487H24.1667C26.1688 21.7487 27.7917 20.1257 27.7917 18.1237V4.83203Z" fill="#004798"/>
</svg>
