<svg width="30" height="30" viewBox="0 0 30 30" fill="none" xmlns="http://www.w3.org/2000/svg">
	<path fill-rule="evenodd" clip-rule="evenodd" d="M2.51477 7.00287C2.29128 4.37528 4.51955 2.5 6.8894 2.5H9.8573C11.2738 2.5 12.5512 3.35228 13.0951 4.66023L14.5573 8.1769C15.0579 9.38071 14.8492 10.7628 14.0156 11.7652L12.4501 13.6477C13.4603 15.1823 14.7326 16.5659 16.1818 17.7113L18.2283 16.0023C19.2324 15.1638 20.6197 14.954 21.8269 15.458L25.3296 16.9205C26.635 17.4656 27.4851 18.7417 27.4851 20.1563C27.4851 20.6443 27.4887 21.1325 27.4924 21.6262L27.4925 21.6281C27.4962 22.1195 27.4999 22.6163 27.4999 23.1141C27.4999 25.4837 25.6247 27.7124 22.9968 27.488C12.322 26.5766 3.42495 17.7036 2.51477 7.00287ZM6.8894 5C5.70996 5 4.92847 5.88207 5.00578 6.79099C5.81258 16.2764 13.7456 24.1891 23.2094 24.9971C24.1179 25.0747 24.9999 24.2936 24.9999 23.1141C24.9999 22.6266 24.9962 22.1386 24.9925 21.645L24.9925 21.6418C24.9888 21.1508 24.9851 20.6542 24.9851 20.1563C24.9851 19.7502 24.7411 19.384 24.3664 19.2275L20.8636 17.765C20.5171 17.6203 20.1189 17.6806 19.8307 17.9212L16.2906 20.8774L15.5062 20.3254C13.2133 18.7117 11.2482 16.588 9.83414 14.173L9.39108 13.4163L12.0934 10.1667C12.3327 9.87901 12.3926 9.48228 12.2489 9.13674L10.7867 5.62007C10.6306 5.24464 10.2639 5 9.8573 5H6.8894Z" fill="#004798"/>
</svg>
