<svg width="44" height="44" viewBox="0 0 44 44" fill="none" xmlns="http://www.w3.org/2000/svg">
	<circle cx="22" cy="22" r="22" fill="#D9D9D9"/>
	<path fill-rule="evenodd" clip-rule="evenodd" d="M28.4909 15.07C28.4909 18.7773 25.4882 21.78 21.7809 21.78C18.0736 21.78 15.0709 18.7773 15.0709 15.07C15.0709 11.3627 18.0736 8.35999 21.7809 8.35999C25.4882 8.35999 28.4909 11.3627 28.4909 15.07ZM8.36133 31.845C8.36133 27.3828 17.3024 25.135 21.7813 25.135C26.2603 25.135 35.2013 27.3828 35.2013 31.845V33.5225C35.2013 34.4451 34.4465 35.2 33.5238 35.2H10.0388C9.1162 35.2 8.36133 34.4451 8.36133 33.5225V31.845Z" fill="#004798"/>
	<path fill-rule="evenodd" clip-rule="evenodd" d="M28.4909 15.07C28.4909 18.7773 25.4882 21.78 21.7809 21.78C18.0736 21.78 15.0709 18.7773 15.0709 15.07C15.0709 11.3627 18.0736 8.35999 21.7809 8.35999C25.4882 8.35999 28.4909 11.3627 28.4909 15.07ZM8.36133 31.845C8.36133 27.3828 17.3024 25.135 21.7813 25.135C26.2603 25.135 35.2013 27.3828 35.2013 31.845V33.5225C35.2013 34.4451 34.4465 35.2 33.5238 35.2H10.0388C9.1162 35.2 8.36133 34.4451 8.36133 33.5225V31.845Z" fill="#EAEBEB"/>
</svg>
