<svg width="100" height="100" viewBox="0 0 100 100" fill="none" xmlns="http://www.w3.org/2000/svg">
	<circle cx="50" cy="50" r="50" fill="#EEF2F8"/>
	<path fill-rule="evenodd" clip-rule="evenodd" d="M62 43H56.7839C56.3663 41.8163 55.2414 41 53.9553 41H47.0447C45.7586 41 44.6337 41.8163 44.2161 43H38C36.3431 43 35 44.3431 35 46V56C35 57.6569 36.3431 59 38 59H62C63.6569 59 65 57.6569 65 56V46C65 44.3431 63.6569 43 62 43ZM50 56C52.7614 56 55 53.7614 55 51C55 48.2386 52.7614 46 50 46C47.2386 46 45 48.2386 45 51C45 53.7614 47.2386 56 50 56Z" fill="white"/>
</svg>
